<mxfile host="Electron" modified="2023-04-18T13:06:20.646Z" agent="Mozilla/5.0 (Windows NT 10.0; Win64; x64) AppleWebKit/537.36 (KHTML, like Gecko) draw.io/21.1.2 Chrome/106.0.5249.199 Electron/21.4.3 Safari/537.36" etag="nASxJwWZe6lv43wG6zd3" version="21.1.2" type="device">
  <diagram id="R2lEEEUBdFMjLlhIrx00" name="Page-1">
    <mxGraphModel dx="2973" dy="1435" grid="1" gridSize="10" guides="1" tooltips="1" connect="1" arrows="1" fold="1" page="0" pageScale="1" pageWidth="850" pageHeight="1100" math="0" shadow="0" extFonts="Permanent Marker^https://fonts.googleapis.com/css?family=Permanent+Marker">
      <root>
        <mxCell id="0" />
        <mxCell id="1" parent="0" />
        <mxCell id="C-vyLk0tnHw3VtMMgP7b-23" value="Video Game" style="shape=table;startSize=30;container=1;collapsible=1;childLayout=tableLayout;fixedRows=1;rowLines=0;fontStyle=1;align=center;resizeLast=1;labelBackgroundColor=none;fillColor=#21C0A5;strokeColor=#006658;fontColor=#5C5C5C;rounded=1;" parent="1" vertex="1">
          <mxGeometry x="-20" y="120" width="250" height="210" as="geometry" />
        </mxCell>
        <mxCell id="C-vyLk0tnHw3VtMMgP7b-24" value="" style="shape=partialRectangle;collapsible=0;dropTarget=0;pointerEvents=0;fillColor=none;points=[[0,0.5],[1,0.5]];portConstraint=eastwest;top=0;left=0;right=0;bottom=1;labelBackgroundColor=none;strokeColor=#006658;fontColor=#5C5C5C;rounded=1;" parent="C-vyLk0tnHw3VtMMgP7b-23" vertex="1">
          <mxGeometry y="30" width="250" height="30" as="geometry" />
        </mxCell>
        <mxCell id="C-vyLk0tnHw3VtMMgP7b-25" value="PK" style="shape=partialRectangle;overflow=hidden;connectable=0;fillColor=none;top=0;left=0;bottom=0;right=0;fontStyle=1;labelBackgroundColor=none;strokeColor=#006658;fontColor=#5C5C5C;rounded=1;" parent="C-vyLk0tnHw3VtMMgP7b-24" vertex="1">
          <mxGeometry width="30" height="30" as="geometry">
            <mxRectangle width="30" height="30" as="alternateBounds" />
          </mxGeometry>
        </mxCell>
        <mxCell id="C-vyLk0tnHw3VtMMgP7b-26" value="UniqueID" style="shape=partialRectangle;overflow=hidden;connectable=0;fillColor=none;top=0;left=0;bottom=0;right=0;align=left;spacingLeft=6;fontStyle=5;labelBackgroundColor=none;strokeColor=#006658;fontColor=#5C5C5C;rounded=1;" parent="C-vyLk0tnHw3VtMMgP7b-24" vertex="1">
          <mxGeometry x="30" width="220" height="30" as="geometry">
            <mxRectangle width="220" height="30" as="alternateBounds" />
          </mxGeometry>
        </mxCell>
        <mxCell id="C-vyLk0tnHw3VtMMgP7b-27" value="" style="shape=partialRectangle;collapsible=0;dropTarget=0;pointerEvents=0;fillColor=none;points=[[0,0.5],[1,0.5]];portConstraint=eastwest;top=0;left=0;right=0;bottom=0;labelBackgroundColor=none;strokeColor=#006658;fontColor=#5C5C5C;rounded=1;" parent="C-vyLk0tnHw3VtMMgP7b-23" vertex="1">
          <mxGeometry y="60" width="250" height="30" as="geometry" />
        </mxCell>
        <mxCell id="C-vyLk0tnHw3VtMMgP7b-28" value="" style="shape=partialRectangle;overflow=hidden;connectable=0;fillColor=none;top=0;left=0;bottom=0;right=0;labelBackgroundColor=none;strokeColor=#006658;fontColor=#5C5C5C;rounded=1;" parent="C-vyLk0tnHw3VtMMgP7b-27" vertex="1">
          <mxGeometry width="30" height="30" as="geometry">
            <mxRectangle width="30" height="30" as="alternateBounds" />
          </mxGeometry>
        </mxCell>
        <mxCell id="C-vyLk0tnHw3VtMMgP7b-29" value="Nome" style="shape=partialRectangle;overflow=hidden;connectable=0;fillColor=none;top=0;left=0;bottom=0;right=0;align=left;spacingLeft=6;labelBackgroundColor=none;strokeColor=#006658;fontColor=#5C5C5C;rounded=1;" parent="C-vyLk0tnHw3VtMMgP7b-27" vertex="1">
          <mxGeometry x="30" width="220" height="30" as="geometry">
            <mxRectangle width="220" height="30" as="alternateBounds" />
          </mxGeometry>
        </mxCell>
        <mxCell id="bSXzpv6cc1hzMu8H0dgz-1" style="shape=partialRectangle;collapsible=0;dropTarget=0;pointerEvents=0;fillColor=none;points=[[0,0.5],[1,0.5]];portConstraint=eastwest;top=0;left=0;right=0;bottom=0;labelBackgroundColor=none;strokeColor=#006658;fontColor=#5C5C5C;rounded=1;" vertex="1" parent="C-vyLk0tnHw3VtMMgP7b-23">
          <mxGeometry y="90" width="250" height="30" as="geometry" />
        </mxCell>
        <mxCell id="bSXzpv6cc1hzMu8H0dgz-2" style="shape=partialRectangle;overflow=hidden;connectable=0;fillColor=none;top=0;left=0;bottom=0;right=0;labelBackgroundColor=none;strokeColor=#006658;fontColor=#5C5C5C;rounded=1;" vertex="1" parent="bSXzpv6cc1hzMu8H0dgz-1">
          <mxGeometry width="30" height="30" as="geometry">
            <mxRectangle width="30" height="30" as="alternateBounds" />
          </mxGeometry>
        </mxCell>
        <mxCell id="bSXzpv6cc1hzMu8H0dgz-3" value="Trama    " style="shape=partialRectangle;overflow=hidden;connectable=0;fillColor=none;top=0;left=0;bottom=0;right=0;align=left;spacingLeft=6;labelBackgroundColor=none;strokeColor=#006658;fontColor=#5C5C5C;rounded=1;" vertex="1" parent="bSXzpv6cc1hzMu8H0dgz-1">
          <mxGeometry x="30" width="220" height="30" as="geometry">
            <mxRectangle width="220" height="30" as="alternateBounds" />
          </mxGeometry>
        </mxCell>
        <mxCell id="bSXzpv6cc1hzMu8H0dgz-4" style="shape=partialRectangle;collapsible=0;dropTarget=0;pointerEvents=0;fillColor=none;points=[[0,0.5],[1,0.5]];portConstraint=eastwest;top=0;left=0;right=0;bottom=0;labelBackgroundColor=none;strokeColor=#006658;fontColor=#5C5C5C;rounded=1;" vertex="1" parent="C-vyLk0tnHw3VtMMgP7b-23">
          <mxGeometry y="120" width="250" height="30" as="geometry" />
        </mxCell>
        <mxCell id="bSXzpv6cc1hzMu8H0dgz-5" style="shape=partialRectangle;overflow=hidden;connectable=0;fillColor=none;top=0;left=0;bottom=0;right=0;labelBackgroundColor=none;strokeColor=#006658;fontColor=#5C5C5C;rounded=1;" vertex="1" parent="bSXzpv6cc1hzMu8H0dgz-4">
          <mxGeometry width="30" height="30" as="geometry">
            <mxRectangle width="30" height="30" as="alternateBounds" />
          </mxGeometry>
        </mxCell>
        <mxCell id="bSXzpv6cc1hzMu8H0dgz-6" value="Data rilascio" style="shape=partialRectangle;overflow=hidden;connectable=0;fillColor=none;top=0;left=0;bottom=0;right=0;align=left;spacingLeft=6;labelBackgroundColor=none;strokeColor=#006658;fontColor=#5C5C5C;rounded=1;" vertex="1" parent="bSXzpv6cc1hzMu8H0dgz-4">
          <mxGeometry x="30" width="220" height="30" as="geometry">
            <mxRectangle width="220" height="30" as="alternateBounds" />
          </mxGeometry>
        </mxCell>
        <mxCell id="bSXzpv6cc1hzMu8H0dgz-29" style="shape=partialRectangle;collapsible=0;dropTarget=0;pointerEvents=0;fillColor=none;points=[[0,0.5],[1,0.5]];portConstraint=eastwest;top=0;left=0;right=0;bottom=0;labelBackgroundColor=none;strokeColor=#006658;fontColor=#5C5C5C;rounded=1;" vertex="1" parent="C-vyLk0tnHw3VtMMgP7b-23">
          <mxGeometry y="150" width="250" height="30" as="geometry" />
        </mxCell>
        <mxCell id="bSXzpv6cc1hzMu8H0dgz-30" value="FK" style="shape=partialRectangle;overflow=hidden;connectable=0;fillColor=none;top=0;left=0;bottom=0;right=0;labelBackgroundColor=none;strokeColor=#006658;fontColor=#5C5C5C;rounded=1;fontStyle=1" vertex="1" parent="bSXzpv6cc1hzMu8H0dgz-29">
          <mxGeometry width="30" height="30" as="geometry">
            <mxRectangle width="30" height="30" as="alternateBounds" />
          </mxGeometry>
        </mxCell>
        <mxCell id="bSXzpv6cc1hzMu8H0dgz-31" value="Software House id" style="shape=partialRectangle;overflow=hidden;connectable=0;fillColor=none;top=0;left=0;bottom=0;right=0;align=left;spacingLeft=6;labelBackgroundColor=none;strokeColor=#006658;fontColor=#5C5C5C;rounded=1;fontStyle=5" vertex="1" parent="bSXzpv6cc1hzMu8H0dgz-29">
          <mxGeometry x="30" width="220" height="30" as="geometry">
            <mxRectangle width="220" height="30" as="alternateBounds" />
          </mxGeometry>
        </mxCell>
        <mxCell id="bSXzpv6cc1hzMu8H0dgz-99" style="shape=partialRectangle;collapsible=0;dropTarget=0;pointerEvents=0;fillColor=none;points=[[0,0.5],[1,0.5]];portConstraint=eastwest;top=0;left=0;right=0;bottom=0;labelBackgroundColor=none;strokeColor=#006658;fontColor=#5C5C5C;rounded=1;" vertex="1" parent="C-vyLk0tnHw3VtMMgP7b-23">
          <mxGeometry y="180" width="250" height="30" as="geometry" />
        </mxCell>
        <mxCell id="bSXzpv6cc1hzMu8H0dgz-100" value="FK" style="shape=partialRectangle;overflow=hidden;connectable=0;fillColor=none;top=0;left=0;bottom=0;right=0;labelBackgroundColor=none;strokeColor=#006658;fontColor=#5C5C5C;rounded=1;fontStyle=1" vertex="1" parent="bSXzpv6cc1hzMu8H0dgz-99">
          <mxGeometry width="30" height="30" as="geometry">
            <mxRectangle width="30" height="30" as="alternateBounds" />
          </mxGeometry>
        </mxCell>
        <mxCell id="bSXzpv6cc1hzMu8H0dgz-101" value="Classificazione id" style="shape=partialRectangle;overflow=hidden;connectable=0;fillColor=none;top=0;left=0;bottom=0;right=0;align=left;spacingLeft=6;labelBackgroundColor=none;strokeColor=#006658;fontColor=#5C5C5C;rounded=1;fontStyle=5" vertex="1" parent="bSXzpv6cc1hzMu8H0dgz-99">
          <mxGeometry x="30" width="220" height="30" as="geometry">
            <mxRectangle width="220" height="30" as="alternateBounds" />
          </mxGeometry>
        </mxCell>
        <mxCell id="bSXzpv6cc1hzMu8H0dgz-10" value="" style="endArrow=none;html=1;rounded=1;entryX=0;entryY=0.5;entryDx=0;entryDy=0;edgeStyle=orthogonalEdgeStyle;elbow=vertical;labelBackgroundColor=none;strokeColor=#006658;fontColor=default;exitX=1;exitY=0.5;exitDx=0;exitDy=0;" edge="1" parent="1" source="bSXzpv6cc1hzMu8H0dgz-29" target="bSXzpv6cc1hzMu8H0dgz-14">
          <mxGeometry relative="1" as="geometry">
            <mxPoint x="220" y="330" as="sourcePoint" />
            <mxPoint x="80" y="480" as="targetPoint" />
            <Array as="points">
              <mxPoint x="290" y="285" />
              <mxPoint x="290" y="165" />
            </Array>
          </mxGeometry>
        </mxCell>
        <mxCell id="bSXzpv6cc1hzMu8H0dgz-11" value="&lt;b&gt;&lt;font style=&quot;font-size: 16px;&quot;&gt;n&lt;/font&gt;&lt;/b&gt;" style="resizable=0;html=1;whiteSpace=wrap;align=left;verticalAlign=bottom;rounded=1;labelBackgroundColor=none;fillColor=#21C0A5;strokeColor=#006658;fontColor=#5C5C5C;" connectable="0" vertex="1" parent="bSXzpv6cc1hzMu8H0dgz-10">
          <mxGeometry x="-1" relative="1" as="geometry">
            <mxPoint x="10" as="offset" />
          </mxGeometry>
        </mxCell>
        <mxCell id="bSXzpv6cc1hzMu8H0dgz-12" value="&lt;font style=&quot;font-size: 16px;&quot;&gt;&lt;b&gt;1&lt;/b&gt;&lt;/font&gt;" style="resizable=0;html=1;whiteSpace=wrap;align=right;verticalAlign=bottom;rounded=1;labelBackgroundColor=none;fillColor=#21C0A5;strokeColor=#006658;fontColor=#5C5C5C;" connectable="0" vertex="1" parent="bSXzpv6cc1hzMu8H0dgz-10">
          <mxGeometry x="1" relative="1" as="geometry">
            <mxPoint x="-10" as="offset" />
          </mxGeometry>
        </mxCell>
        <mxCell id="bSXzpv6cc1hzMu8H0dgz-13" value="Software House" style="shape=table;startSize=30;container=1;collapsible=1;childLayout=tableLayout;fixedRows=1;rowLines=0;fontStyle=1;align=center;resizeLast=1;labelBackgroundColor=none;fillColor=#21C0A5;strokeColor=#006658;fontColor=#5C5C5C;rounded=1;" vertex="1" parent="1">
          <mxGeometry x="350" y="120" width="250" height="180" as="geometry" />
        </mxCell>
        <mxCell id="bSXzpv6cc1hzMu8H0dgz-14" value="" style="shape=partialRectangle;collapsible=0;dropTarget=0;pointerEvents=0;fillColor=none;points=[[0,0.5],[1,0.5]];portConstraint=eastwest;top=0;left=0;right=0;bottom=1;labelBackgroundColor=none;strokeColor=#006658;fontColor=#5C5C5C;rounded=1;" vertex="1" parent="bSXzpv6cc1hzMu8H0dgz-13">
          <mxGeometry y="30" width="250" height="30" as="geometry" />
        </mxCell>
        <mxCell id="bSXzpv6cc1hzMu8H0dgz-15" value="PK" style="shape=partialRectangle;overflow=hidden;connectable=0;fillColor=none;top=0;left=0;bottom=0;right=0;fontStyle=1;labelBackgroundColor=none;strokeColor=#006658;fontColor=#5C5C5C;rounded=1;" vertex="1" parent="bSXzpv6cc1hzMu8H0dgz-14">
          <mxGeometry width="30" height="30" as="geometry">
            <mxRectangle width="30" height="30" as="alternateBounds" />
          </mxGeometry>
        </mxCell>
        <mxCell id="bSXzpv6cc1hzMu8H0dgz-16" value="UniqueID" style="shape=partialRectangle;overflow=hidden;connectable=0;fillColor=none;top=0;left=0;bottom=0;right=0;align=left;spacingLeft=6;fontStyle=5;labelBackgroundColor=none;strokeColor=#006658;fontColor=#5C5C5C;rounded=1;" vertex="1" parent="bSXzpv6cc1hzMu8H0dgz-14">
          <mxGeometry x="30" width="220" height="30" as="geometry">
            <mxRectangle width="220" height="30" as="alternateBounds" />
          </mxGeometry>
        </mxCell>
        <mxCell id="bSXzpv6cc1hzMu8H0dgz-17" value="" style="shape=partialRectangle;collapsible=0;dropTarget=0;pointerEvents=0;fillColor=none;points=[[0,0.5],[1,0.5]];portConstraint=eastwest;top=0;left=0;right=0;bottom=0;labelBackgroundColor=none;strokeColor=#006658;fontColor=#5C5C5C;rounded=1;" vertex="1" parent="bSXzpv6cc1hzMu8H0dgz-13">
          <mxGeometry y="60" width="250" height="30" as="geometry" />
        </mxCell>
        <mxCell id="bSXzpv6cc1hzMu8H0dgz-18" value="" style="shape=partialRectangle;overflow=hidden;connectable=0;fillColor=none;top=0;left=0;bottom=0;right=0;labelBackgroundColor=none;strokeColor=#006658;fontColor=#5C5C5C;rounded=1;" vertex="1" parent="bSXzpv6cc1hzMu8H0dgz-17">
          <mxGeometry width="30" height="30" as="geometry">
            <mxRectangle width="30" height="30" as="alternateBounds" />
          </mxGeometry>
        </mxCell>
        <mxCell id="bSXzpv6cc1hzMu8H0dgz-19" value="Nome" style="shape=partialRectangle;overflow=hidden;connectable=0;fillColor=none;top=0;left=0;bottom=0;right=0;align=left;spacingLeft=6;labelBackgroundColor=none;strokeColor=#006658;fontColor=#5C5C5C;rounded=1;" vertex="1" parent="bSXzpv6cc1hzMu8H0dgz-17">
          <mxGeometry x="30" width="220" height="30" as="geometry">
            <mxRectangle width="220" height="30" as="alternateBounds" />
          </mxGeometry>
        </mxCell>
        <mxCell id="bSXzpv6cc1hzMu8H0dgz-20" style="shape=partialRectangle;collapsible=0;dropTarget=0;pointerEvents=0;fillColor=none;points=[[0,0.5],[1,0.5]];portConstraint=eastwest;top=0;left=0;right=0;bottom=0;labelBackgroundColor=none;strokeColor=#006658;fontColor=#5C5C5C;rounded=1;" vertex="1" parent="bSXzpv6cc1hzMu8H0dgz-13">
          <mxGeometry y="90" width="250" height="30" as="geometry" />
        </mxCell>
        <mxCell id="bSXzpv6cc1hzMu8H0dgz-21" style="shape=partialRectangle;overflow=hidden;connectable=0;fillColor=none;top=0;left=0;bottom=0;right=0;labelBackgroundColor=none;strokeColor=#006658;fontColor=#5C5C5C;rounded=1;" vertex="1" parent="bSXzpv6cc1hzMu8H0dgz-20">
          <mxGeometry width="30" height="30" as="geometry">
            <mxRectangle width="30" height="30" as="alternateBounds" />
          </mxGeometry>
        </mxCell>
        <mxCell id="bSXzpv6cc1hzMu8H0dgz-22" value="Partita IVA" style="shape=partialRectangle;overflow=hidden;connectable=0;fillColor=none;top=0;left=0;bottom=0;right=0;align=left;spacingLeft=6;labelBackgroundColor=none;strokeColor=#006658;fontColor=#5C5C5C;rounded=1;" vertex="1" parent="bSXzpv6cc1hzMu8H0dgz-20">
          <mxGeometry x="30" width="220" height="30" as="geometry">
            <mxRectangle width="220" height="30" as="alternateBounds" />
          </mxGeometry>
        </mxCell>
        <mxCell id="bSXzpv6cc1hzMu8H0dgz-23" style="shape=partialRectangle;collapsible=0;dropTarget=0;pointerEvents=0;fillColor=none;points=[[0,0.5],[1,0.5]];portConstraint=eastwest;top=0;left=0;right=0;bottom=0;labelBackgroundColor=none;strokeColor=#006658;fontColor=#5C5C5C;rounded=1;" vertex="1" parent="bSXzpv6cc1hzMu8H0dgz-13">
          <mxGeometry y="120" width="250" height="30" as="geometry" />
        </mxCell>
        <mxCell id="bSXzpv6cc1hzMu8H0dgz-24" style="shape=partialRectangle;overflow=hidden;connectable=0;fillColor=none;top=0;left=0;bottom=0;right=0;labelBackgroundColor=none;strokeColor=#006658;fontColor=#5C5C5C;rounded=1;" vertex="1" parent="bSXzpv6cc1hzMu8H0dgz-23">
          <mxGeometry width="30" height="30" as="geometry">
            <mxRectangle width="30" height="30" as="alternateBounds" />
          </mxGeometry>
        </mxCell>
        <mxCell id="bSXzpv6cc1hzMu8H0dgz-25" value="Città" style="shape=partialRectangle;overflow=hidden;connectable=0;fillColor=none;top=0;left=0;bottom=0;right=0;align=left;spacingLeft=6;labelBackgroundColor=none;strokeColor=#006658;fontColor=#5C5C5C;rounded=1;" vertex="1" parent="bSXzpv6cc1hzMu8H0dgz-23">
          <mxGeometry x="30" width="220" height="30" as="geometry">
            <mxRectangle width="220" height="30" as="alternateBounds" />
          </mxGeometry>
        </mxCell>
        <mxCell id="bSXzpv6cc1hzMu8H0dgz-26" style="shape=partialRectangle;collapsible=0;dropTarget=0;pointerEvents=0;fillColor=none;points=[[0,0.5],[1,0.5]];portConstraint=eastwest;top=0;left=0;right=0;bottom=0;labelBackgroundColor=none;strokeColor=#006658;fontColor=#5C5C5C;rounded=1;" vertex="1" parent="bSXzpv6cc1hzMu8H0dgz-13">
          <mxGeometry y="150" width="250" height="30" as="geometry" />
        </mxCell>
        <mxCell id="bSXzpv6cc1hzMu8H0dgz-27" style="shape=partialRectangle;overflow=hidden;connectable=0;fillColor=none;top=0;left=0;bottom=0;right=0;labelBackgroundColor=none;strokeColor=#006658;fontColor=#5C5C5C;rounded=1;" vertex="1" parent="bSXzpv6cc1hzMu8H0dgz-26">
          <mxGeometry width="30" height="30" as="geometry">
            <mxRectangle width="30" height="30" as="alternateBounds" />
          </mxGeometry>
        </mxCell>
        <mxCell id="bSXzpv6cc1hzMu8H0dgz-28" value="Nazione" style="shape=partialRectangle;overflow=hidden;connectable=0;fillColor=none;top=0;left=0;bottom=0;right=0;align=left;spacingLeft=6;labelBackgroundColor=none;strokeColor=#006658;fontColor=#5C5C5C;rounded=1;" vertex="1" parent="bSXzpv6cc1hzMu8H0dgz-26">
          <mxGeometry x="30" width="220" height="30" as="geometry">
            <mxRectangle width="220" height="30" as="alternateBounds" />
          </mxGeometry>
        </mxCell>
        <mxCell id="bSXzpv6cc1hzMu8H0dgz-45" value="Piattaforma" style="shape=table;startSize=30;container=1;collapsible=1;childLayout=tableLayout;fixedRows=1;rowLines=0;fontStyle=1;align=center;resizeLast=1;labelBackgroundColor=none;fillColor=#21C0A5;strokeColor=#006658;fontColor=#5C5C5C;rounded=1;" vertex="1" parent="1">
          <mxGeometry x="-30" y="-360" width="250" height="90" as="geometry" />
        </mxCell>
        <mxCell id="bSXzpv6cc1hzMu8H0dgz-46" value="" style="shape=partialRectangle;collapsible=0;dropTarget=0;pointerEvents=0;fillColor=none;points=[[0,0.5],[1,0.5]];portConstraint=eastwest;top=0;left=0;right=0;bottom=1;labelBackgroundColor=none;strokeColor=#006658;fontColor=#5C5C5C;rounded=1;" vertex="1" parent="bSXzpv6cc1hzMu8H0dgz-45">
          <mxGeometry y="30" width="250" height="30" as="geometry" />
        </mxCell>
        <mxCell id="bSXzpv6cc1hzMu8H0dgz-47" value="PK" style="shape=partialRectangle;overflow=hidden;connectable=0;fillColor=none;top=0;left=0;bottom=0;right=0;fontStyle=1;labelBackgroundColor=none;strokeColor=#006658;fontColor=#5C5C5C;rounded=1;" vertex="1" parent="bSXzpv6cc1hzMu8H0dgz-46">
          <mxGeometry width="30" height="30" as="geometry">
            <mxRectangle width="30" height="30" as="alternateBounds" />
          </mxGeometry>
        </mxCell>
        <mxCell id="bSXzpv6cc1hzMu8H0dgz-48" value="UniqueID" style="shape=partialRectangle;overflow=hidden;connectable=0;fillColor=none;top=0;left=0;bottom=0;right=0;align=left;spacingLeft=6;fontStyle=5;labelBackgroundColor=none;strokeColor=#006658;fontColor=#5C5C5C;rounded=1;" vertex="1" parent="bSXzpv6cc1hzMu8H0dgz-46">
          <mxGeometry x="30" width="220" height="30" as="geometry">
            <mxRectangle width="220" height="30" as="alternateBounds" />
          </mxGeometry>
        </mxCell>
        <mxCell id="bSXzpv6cc1hzMu8H0dgz-49" value="" style="shape=partialRectangle;collapsible=0;dropTarget=0;pointerEvents=0;fillColor=none;points=[[0,0.5],[1,0.5]];portConstraint=eastwest;top=0;left=0;right=0;bottom=0;labelBackgroundColor=none;strokeColor=#006658;fontColor=#5C5C5C;rounded=1;" vertex="1" parent="bSXzpv6cc1hzMu8H0dgz-45">
          <mxGeometry y="60" width="250" height="30" as="geometry" />
        </mxCell>
        <mxCell id="bSXzpv6cc1hzMu8H0dgz-50" value="" style="shape=partialRectangle;overflow=hidden;connectable=0;fillColor=none;top=0;left=0;bottom=0;right=0;labelBackgroundColor=none;strokeColor=#006658;fontColor=#5C5C5C;rounded=1;" vertex="1" parent="bSXzpv6cc1hzMu8H0dgz-49">
          <mxGeometry width="30" height="30" as="geometry">
            <mxRectangle width="30" height="30" as="alternateBounds" />
          </mxGeometry>
        </mxCell>
        <mxCell id="bSXzpv6cc1hzMu8H0dgz-51" value="Nome" style="shape=partialRectangle;overflow=hidden;connectable=0;fillColor=none;top=0;left=0;bottom=0;right=0;align=left;spacingLeft=6;labelBackgroundColor=none;strokeColor=#006658;fontColor=#5C5C5C;rounded=1;" vertex="1" parent="bSXzpv6cc1hzMu8H0dgz-49">
          <mxGeometry x="30" width="220" height="30" as="geometry">
            <mxRectangle width="220" height="30" as="alternateBounds" />
          </mxGeometry>
        </mxCell>
        <mxCell id="bSXzpv6cc1hzMu8H0dgz-77" value="Categoria" style="shape=table;startSize=30;container=1;collapsible=1;childLayout=tableLayout;fixedRows=1;rowLines=0;fontStyle=1;align=center;resizeLast=1;labelBackgroundColor=none;fillColor=#21C0A5;strokeColor=#006658;fontColor=#5C5C5C;rounded=1;" vertex="1" parent="1">
          <mxGeometry x="-710" y="10" width="250" height="90" as="geometry" />
        </mxCell>
        <mxCell id="bSXzpv6cc1hzMu8H0dgz-78" value="" style="shape=partialRectangle;collapsible=0;dropTarget=0;pointerEvents=0;fillColor=none;points=[[0,0.5],[1,0.5]];portConstraint=eastwest;top=0;left=0;right=0;bottom=1;labelBackgroundColor=none;strokeColor=#006658;fontColor=#5C5C5C;rounded=1;" vertex="1" parent="bSXzpv6cc1hzMu8H0dgz-77">
          <mxGeometry y="30" width="250" height="30" as="geometry" />
        </mxCell>
        <mxCell id="bSXzpv6cc1hzMu8H0dgz-79" value="PK" style="shape=partialRectangle;overflow=hidden;connectable=0;fillColor=none;top=0;left=0;bottom=0;right=0;fontStyle=1;labelBackgroundColor=none;strokeColor=#006658;fontColor=#5C5C5C;rounded=1;" vertex="1" parent="bSXzpv6cc1hzMu8H0dgz-78">
          <mxGeometry width="30" height="30" as="geometry">
            <mxRectangle width="30" height="30" as="alternateBounds" />
          </mxGeometry>
        </mxCell>
        <mxCell id="bSXzpv6cc1hzMu8H0dgz-80" value="UniqueID" style="shape=partialRectangle;overflow=hidden;connectable=0;fillColor=none;top=0;left=0;bottom=0;right=0;align=left;spacingLeft=6;fontStyle=5;labelBackgroundColor=none;strokeColor=#006658;fontColor=#5C5C5C;rounded=1;" vertex="1" parent="bSXzpv6cc1hzMu8H0dgz-78">
          <mxGeometry x="30" width="220" height="30" as="geometry">
            <mxRectangle width="220" height="30" as="alternateBounds" />
          </mxGeometry>
        </mxCell>
        <mxCell id="bSXzpv6cc1hzMu8H0dgz-81" value="" style="shape=partialRectangle;collapsible=0;dropTarget=0;pointerEvents=0;fillColor=none;points=[[0,0.5],[1,0.5]];portConstraint=eastwest;top=0;left=0;right=0;bottom=0;labelBackgroundColor=none;strokeColor=#006658;fontColor=#5C5C5C;rounded=1;" vertex="1" parent="bSXzpv6cc1hzMu8H0dgz-77">
          <mxGeometry y="60" width="250" height="30" as="geometry" />
        </mxCell>
        <mxCell id="bSXzpv6cc1hzMu8H0dgz-82" value="" style="shape=partialRectangle;overflow=hidden;connectable=0;fillColor=none;top=0;left=0;bottom=0;right=0;labelBackgroundColor=none;strokeColor=#006658;fontColor=#5C5C5C;rounded=1;" vertex="1" parent="bSXzpv6cc1hzMu8H0dgz-81">
          <mxGeometry width="30" height="30" as="geometry">
            <mxRectangle width="30" height="30" as="alternateBounds" />
          </mxGeometry>
        </mxCell>
        <mxCell id="bSXzpv6cc1hzMu8H0dgz-83" value="Tipo" style="shape=partialRectangle;overflow=hidden;connectable=0;fillColor=none;top=0;left=0;bottom=0;right=0;align=left;spacingLeft=6;labelBackgroundColor=none;strokeColor=#006658;fontColor=#5C5C5C;rounded=1;" vertex="1" parent="bSXzpv6cc1hzMu8H0dgz-81">
          <mxGeometry x="30" width="220" height="30" as="geometry">
            <mxRectangle width="220" height="30" as="alternateBounds" />
          </mxGeometry>
        </mxCell>
        <mxCell id="bSXzpv6cc1hzMu8H0dgz-102" value="" style="endArrow=none;html=1;rounded=1;edgeStyle=orthogonalEdgeStyle;elbow=vertical;labelBackgroundColor=none;strokeColor=#006658;fontColor=default;exitX=0;exitY=0.5;exitDx=0;exitDy=0;entryX=1;entryY=0.5;entryDx=0;entryDy=0;" edge="1" parent="1" source="bSXzpv6cc1hzMu8H0dgz-99" target="bSXzpv6cc1hzMu8H0dgz-106">
          <mxGeometry relative="1" as="geometry">
            <mxPoint x="-110" y="360" as="sourcePoint" />
            <mxPoint x="-290" y="270" as="targetPoint" />
            <Array as="points">
              <mxPoint x="-70" y="315" />
              <mxPoint x="-70" y="405" />
            </Array>
          </mxGeometry>
        </mxCell>
        <mxCell id="bSXzpv6cc1hzMu8H0dgz-103" value="&lt;b&gt;&lt;font style=&quot;font-size: 16px;&quot;&gt;n&lt;/font&gt;&lt;/b&gt;" style="resizable=0;html=1;whiteSpace=wrap;align=left;verticalAlign=bottom;rounded=1;labelBackgroundColor=none;fillColor=#21C0A5;strokeColor=#006658;fontColor=#5C5C5C;" connectable="0" vertex="1" parent="bSXzpv6cc1hzMu8H0dgz-102">
          <mxGeometry x="-1" relative="1" as="geometry">
            <mxPoint x="-20" y="-5" as="offset" />
          </mxGeometry>
        </mxCell>
        <mxCell id="bSXzpv6cc1hzMu8H0dgz-104" value="&lt;font style=&quot;font-size: 16px;&quot;&gt;&lt;b&gt;1&lt;/b&gt;&lt;/font&gt;" style="resizable=0;html=1;whiteSpace=wrap;align=right;verticalAlign=bottom;rounded=1;labelBackgroundColor=none;fillColor=#21C0A5;strokeColor=#006658;fontColor=#5C5C5C;" connectable="0" vertex="1" parent="bSXzpv6cc1hzMu8H0dgz-102">
          <mxGeometry x="1" relative="1" as="geometry">
            <mxPoint x="20" as="offset" />
          </mxGeometry>
        </mxCell>
        <mxCell id="bSXzpv6cc1hzMu8H0dgz-105" value="Classificazione" style="shape=table;startSize=30;container=1;collapsible=1;childLayout=tableLayout;fixedRows=1;rowLines=0;fontStyle=1;align=center;resizeLast=1;labelBackgroundColor=none;fillColor=#21C0A5;strokeColor=#006658;fontColor=#5C5C5C;rounded=1;" vertex="1" parent="1">
          <mxGeometry x="-360" y="360" width="250" height="90" as="geometry" />
        </mxCell>
        <mxCell id="bSXzpv6cc1hzMu8H0dgz-106" value="" style="shape=partialRectangle;collapsible=0;dropTarget=0;pointerEvents=0;fillColor=none;points=[[0,0.5],[1,0.5]];portConstraint=eastwest;top=0;left=0;right=0;bottom=1;labelBackgroundColor=none;strokeColor=#006658;fontColor=#5C5C5C;rounded=1;" vertex="1" parent="bSXzpv6cc1hzMu8H0dgz-105">
          <mxGeometry y="30" width="250" height="30" as="geometry" />
        </mxCell>
        <mxCell id="bSXzpv6cc1hzMu8H0dgz-107" value="PK" style="shape=partialRectangle;overflow=hidden;connectable=0;fillColor=none;top=0;left=0;bottom=0;right=0;fontStyle=1;labelBackgroundColor=none;strokeColor=#006658;fontColor=#5C5C5C;rounded=1;" vertex="1" parent="bSXzpv6cc1hzMu8H0dgz-106">
          <mxGeometry width="30" height="30" as="geometry">
            <mxRectangle width="30" height="30" as="alternateBounds" />
          </mxGeometry>
        </mxCell>
        <mxCell id="bSXzpv6cc1hzMu8H0dgz-108" value="UniqueID" style="shape=partialRectangle;overflow=hidden;connectable=0;fillColor=none;top=0;left=0;bottom=0;right=0;align=left;spacingLeft=6;fontStyle=5;labelBackgroundColor=none;strokeColor=#006658;fontColor=#5C5C5C;rounded=1;" vertex="1" parent="bSXzpv6cc1hzMu8H0dgz-106">
          <mxGeometry x="30" width="220" height="30" as="geometry">
            <mxRectangle width="220" height="30" as="alternateBounds" />
          </mxGeometry>
        </mxCell>
        <mxCell id="bSXzpv6cc1hzMu8H0dgz-109" value="" style="shape=partialRectangle;collapsible=0;dropTarget=0;pointerEvents=0;fillColor=none;points=[[0,0.5],[1,0.5]];portConstraint=eastwest;top=0;left=0;right=0;bottom=0;labelBackgroundColor=none;strokeColor=#006658;fontColor=#5C5C5C;rounded=1;" vertex="1" parent="bSXzpv6cc1hzMu8H0dgz-105">
          <mxGeometry y="60" width="250" height="30" as="geometry" />
        </mxCell>
        <mxCell id="bSXzpv6cc1hzMu8H0dgz-110" value="" style="shape=partialRectangle;overflow=hidden;connectable=0;fillColor=none;top=0;left=0;bottom=0;right=0;labelBackgroundColor=none;strokeColor=#006658;fontColor=#5C5C5C;rounded=1;" vertex="1" parent="bSXzpv6cc1hzMu8H0dgz-109">
          <mxGeometry width="30" height="30" as="geometry">
            <mxRectangle width="30" height="30" as="alternateBounds" />
          </mxGeometry>
        </mxCell>
        <mxCell id="bSXzpv6cc1hzMu8H0dgz-111" value="Tipo" style="shape=partialRectangle;overflow=hidden;connectable=0;fillColor=none;top=0;left=0;bottom=0;right=0;align=left;spacingLeft=6;labelBackgroundColor=none;strokeColor=#006658;fontColor=#5C5C5C;rounded=1;" vertex="1" parent="bSXzpv6cc1hzMu8H0dgz-109">
          <mxGeometry x="30" width="220" height="30" as="geometry">
            <mxRectangle width="220" height="30" as="alternateBounds" />
          </mxGeometry>
        </mxCell>
        <mxCell id="bSXzpv6cc1hzMu8H0dgz-112" value="Categoria Video Game" style="shape=table;startSize=30;container=1;collapsible=1;childLayout=tableLayout;fixedRows=1;rowLines=0;fontStyle=0;align=center;resizeLast=1;labelBackgroundColor=none;fillColor=#21C0A5;strokeColor=#006658;fontColor=#5C5C5C;rounded=1;" vertex="1" parent="1">
          <mxGeometry x="-360" y="-20" width="250" height="120" as="geometry" />
        </mxCell>
        <mxCell id="bSXzpv6cc1hzMu8H0dgz-113" value="" style="shape=partialRectangle;collapsible=0;dropTarget=0;pointerEvents=0;fillColor=none;points=[[0,0.5],[1,0.5]];portConstraint=eastwest;top=0;left=0;right=0;bottom=1;labelBackgroundColor=none;strokeColor=#006658;fontColor=#5C5C5C;rounded=1;" vertex="1" parent="bSXzpv6cc1hzMu8H0dgz-112">
          <mxGeometry y="30" width="250" height="30" as="geometry" />
        </mxCell>
        <mxCell id="bSXzpv6cc1hzMu8H0dgz-114" value="PK" style="shape=partialRectangle;overflow=hidden;connectable=0;fillColor=none;top=0;left=0;bottom=0;right=0;fontStyle=1;labelBackgroundColor=none;strokeColor=#006658;fontColor=#5C5C5C;rounded=1;" vertex="1" parent="bSXzpv6cc1hzMu8H0dgz-113">
          <mxGeometry width="30" height="30" as="geometry">
            <mxRectangle width="30" height="30" as="alternateBounds" />
          </mxGeometry>
        </mxCell>
        <mxCell id="bSXzpv6cc1hzMu8H0dgz-115" value="UniqueID" style="shape=partialRectangle;overflow=hidden;connectable=0;fillColor=none;top=0;left=0;bottom=0;right=0;align=left;spacingLeft=6;fontStyle=5;labelBackgroundColor=none;strokeColor=#006658;fontColor=#5C5C5C;rounded=1;" vertex="1" parent="bSXzpv6cc1hzMu8H0dgz-113">
          <mxGeometry x="30" width="220" height="30" as="geometry">
            <mxRectangle width="220" height="30" as="alternateBounds" />
          </mxGeometry>
        </mxCell>
        <mxCell id="bSXzpv6cc1hzMu8H0dgz-116" value="" style="shape=partialRectangle;collapsible=0;dropTarget=0;pointerEvents=0;fillColor=none;points=[[0,0.5],[1,0.5]];portConstraint=eastwest;top=0;left=0;right=0;bottom=0;labelBackgroundColor=none;strokeColor=#006658;fontColor=#5C5C5C;rounded=1;" vertex="1" parent="bSXzpv6cc1hzMu8H0dgz-112">
          <mxGeometry y="60" width="250" height="30" as="geometry" />
        </mxCell>
        <mxCell id="bSXzpv6cc1hzMu8H0dgz-117" value="FK" style="shape=partialRectangle;overflow=hidden;connectable=0;fillColor=none;top=0;left=0;bottom=0;right=0;labelBackgroundColor=none;strokeColor=#006658;fontColor=#5C5C5C;rounded=1;fontStyle=1" vertex="1" parent="bSXzpv6cc1hzMu8H0dgz-116">
          <mxGeometry width="30" height="30" as="geometry">
            <mxRectangle width="30" height="30" as="alternateBounds" />
          </mxGeometry>
        </mxCell>
        <mxCell id="bSXzpv6cc1hzMu8H0dgz-118" value="Categoria id" style="shape=partialRectangle;overflow=hidden;connectable=0;fillColor=none;top=0;left=0;bottom=0;right=0;align=left;spacingLeft=6;labelBackgroundColor=none;strokeColor=#006658;fontColor=#5C5C5C;rounded=1;fontStyle=5" vertex="1" parent="bSXzpv6cc1hzMu8H0dgz-116">
          <mxGeometry x="30" width="220" height="30" as="geometry">
            <mxRectangle width="220" height="30" as="alternateBounds" />
          </mxGeometry>
        </mxCell>
        <mxCell id="bSXzpv6cc1hzMu8H0dgz-119" style="shape=partialRectangle;collapsible=0;dropTarget=0;pointerEvents=0;fillColor=none;points=[[0,0.5],[1,0.5]];portConstraint=eastwest;top=0;left=0;right=0;bottom=0;labelBackgroundColor=none;strokeColor=#006658;fontColor=#5C5C5C;rounded=1;" vertex="1" parent="bSXzpv6cc1hzMu8H0dgz-112">
          <mxGeometry y="90" width="250" height="30" as="geometry" />
        </mxCell>
        <mxCell id="bSXzpv6cc1hzMu8H0dgz-120" value="FK" style="shape=partialRectangle;overflow=hidden;connectable=0;fillColor=none;top=0;left=0;bottom=0;right=0;labelBackgroundColor=none;strokeColor=#006658;fontColor=#5C5C5C;rounded=1;fontStyle=1" vertex="1" parent="bSXzpv6cc1hzMu8H0dgz-119">
          <mxGeometry width="30" height="30" as="geometry">
            <mxRectangle width="30" height="30" as="alternateBounds" />
          </mxGeometry>
        </mxCell>
        <mxCell id="bSXzpv6cc1hzMu8H0dgz-121" value="Video Game id" style="shape=partialRectangle;overflow=hidden;connectable=0;fillColor=none;top=0;left=0;bottom=0;right=0;align=left;spacingLeft=6;labelBackgroundColor=none;strokeColor=#006658;fontColor=#5C5C5C;rounded=1;fontStyle=5" vertex="1" parent="bSXzpv6cc1hzMu8H0dgz-119">
          <mxGeometry x="30" width="220" height="30" as="geometry">
            <mxRectangle width="220" height="30" as="alternateBounds" />
          </mxGeometry>
        </mxCell>
        <mxCell id="bSXzpv6cc1hzMu8H0dgz-122" value="" style="endArrow=none;html=1;rounded=1;edgeStyle=orthogonalEdgeStyle;elbow=vertical;labelBackgroundColor=none;strokeColor=#006658;fontColor=default;exitX=0;exitY=0.5;exitDx=0;exitDy=0;entryX=1;entryY=0.5;entryDx=0;entryDy=0;" edge="1" parent="1" source="C-vyLk0tnHw3VtMMgP7b-24" target="bSXzpv6cc1hzMu8H0dgz-119">
          <mxGeometry relative="1" as="geometry">
            <mxPoint x="-20.000000000000455" y="315" as="sourcePoint" />
            <mxPoint x="-280" y="260" as="targetPoint" />
            <Array as="points">
              <mxPoint x="-70" y="165" />
              <mxPoint x="-70" y="85" />
            </Array>
          </mxGeometry>
        </mxCell>
        <mxCell id="bSXzpv6cc1hzMu8H0dgz-123" value="&lt;b&gt;&lt;font style=&quot;font-size: 16px;&quot;&gt;n&lt;/font&gt;&lt;/b&gt;" style="resizable=0;html=1;whiteSpace=wrap;align=left;verticalAlign=bottom;rounded=1;labelBackgroundColor=none;fillColor=#21C0A5;strokeColor=#006658;fontColor=#5C5C5C;" connectable="0" vertex="1" parent="bSXzpv6cc1hzMu8H0dgz-122">
          <mxGeometry x="-1" relative="1" as="geometry">
            <mxPoint x="-20" as="offset" />
          </mxGeometry>
        </mxCell>
        <mxCell id="bSXzpv6cc1hzMu8H0dgz-124" value="&lt;font style=&quot;font-size: 16px;&quot;&gt;&lt;b&gt;n&lt;/b&gt;&lt;/font&gt;" style="resizable=0;html=1;whiteSpace=wrap;align=right;verticalAlign=bottom;rounded=1;labelBackgroundColor=none;fillColor=#21C0A5;strokeColor=#006658;fontColor=#5C5C5C;" connectable="0" vertex="1" parent="bSXzpv6cc1hzMu8H0dgz-122">
          <mxGeometry x="1" relative="1" as="geometry">
            <mxPoint x="20" as="offset" />
          </mxGeometry>
        </mxCell>
        <mxCell id="bSXzpv6cc1hzMu8H0dgz-125" value="" style="endArrow=none;html=1;rounded=1;edgeStyle=orthogonalEdgeStyle;elbow=vertical;labelBackgroundColor=none;strokeColor=#006658;fontColor=default;exitX=0;exitY=0.5;exitDx=0;exitDy=0;entryX=1;entryY=0.5;entryDx=0;entryDy=0;" edge="1" parent="1" source="bSXzpv6cc1hzMu8H0dgz-116" target="bSXzpv6cc1hzMu8H0dgz-78">
          <mxGeometry relative="1" as="geometry">
            <mxPoint x="-380" y="100" as="sourcePoint" />
            <mxPoint x="-500" y="55" as="targetPoint" />
            <Array as="points" />
          </mxGeometry>
        </mxCell>
        <mxCell id="bSXzpv6cc1hzMu8H0dgz-126" value="&lt;b&gt;&lt;font style=&quot;font-size: 16px;&quot;&gt;n&lt;/font&gt;&lt;/b&gt;" style="resizable=0;html=1;whiteSpace=wrap;align=left;verticalAlign=bottom;rounded=1;labelBackgroundColor=none;fillColor=#21C0A5;strokeColor=#006658;fontColor=#5C5C5C;" connectable="0" vertex="1" parent="bSXzpv6cc1hzMu8H0dgz-125">
          <mxGeometry x="-1" relative="1" as="geometry">
            <mxPoint x="-20" as="offset" />
          </mxGeometry>
        </mxCell>
        <mxCell id="bSXzpv6cc1hzMu8H0dgz-127" value="&lt;font style=&quot;font-size: 16px;&quot;&gt;&lt;b&gt;n&lt;/b&gt;&lt;/font&gt;" style="resizable=0;html=1;whiteSpace=wrap;align=right;verticalAlign=bottom;rounded=1;labelBackgroundColor=none;fillColor=#21C0A5;strokeColor=#006658;fontColor=#5C5C5C;" connectable="0" vertex="1" parent="bSXzpv6cc1hzMu8H0dgz-125">
          <mxGeometry x="1" relative="1" as="geometry">
            <mxPoint x="20" as="offset" />
          </mxGeometry>
        </mxCell>
        <mxCell id="bSXzpv6cc1hzMu8H0dgz-128" value="Piattaforma Video Game" style="shape=table;startSize=30;container=1;collapsible=1;childLayout=tableLayout;fixedRows=1;rowLines=0;fontStyle=1;align=center;resizeLast=1;labelBackgroundColor=none;fillColor=#21C0A5;strokeColor=#006658;fontColor=#5C5C5C;rounded=1;" vertex="1" parent="1">
          <mxGeometry x="-20" y="-170" width="250" height="120" as="geometry" />
        </mxCell>
        <mxCell id="bSXzpv6cc1hzMu8H0dgz-129" value="" style="shape=partialRectangle;collapsible=0;dropTarget=0;pointerEvents=0;fillColor=none;points=[[0,0.5],[1,0.5]];portConstraint=eastwest;top=0;left=0;right=0;bottom=1;labelBackgroundColor=none;strokeColor=#006658;fontColor=#5C5C5C;rounded=1;" vertex="1" parent="bSXzpv6cc1hzMu8H0dgz-128">
          <mxGeometry y="30" width="250" height="30" as="geometry" />
        </mxCell>
        <mxCell id="bSXzpv6cc1hzMu8H0dgz-130" value="PK" style="shape=partialRectangle;overflow=hidden;connectable=0;fillColor=none;top=0;left=0;bottom=0;right=0;fontStyle=1;labelBackgroundColor=none;strokeColor=#006658;fontColor=#5C5C5C;rounded=1;" vertex="1" parent="bSXzpv6cc1hzMu8H0dgz-129">
          <mxGeometry width="30" height="30" as="geometry">
            <mxRectangle width="30" height="30" as="alternateBounds" />
          </mxGeometry>
        </mxCell>
        <mxCell id="bSXzpv6cc1hzMu8H0dgz-131" value="UniqueID" style="shape=partialRectangle;overflow=hidden;connectable=0;fillColor=none;top=0;left=0;bottom=0;right=0;align=left;spacingLeft=6;fontStyle=5;labelBackgroundColor=none;strokeColor=#006658;fontColor=#5C5C5C;rounded=1;" vertex="1" parent="bSXzpv6cc1hzMu8H0dgz-129">
          <mxGeometry x="30" width="220" height="30" as="geometry">
            <mxRectangle width="220" height="30" as="alternateBounds" />
          </mxGeometry>
        </mxCell>
        <mxCell id="bSXzpv6cc1hzMu8H0dgz-132" value="" style="shape=partialRectangle;collapsible=0;dropTarget=0;pointerEvents=0;fillColor=none;points=[[0,0.5],[1,0.5]];portConstraint=eastwest;top=0;left=0;right=0;bottom=0;labelBackgroundColor=none;strokeColor=#006658;fontColor=#5C5C5C;rounded=1;" vertex="1" parent="bSXzpv6cc1hzMu8H0dgz-128">
          <mxGeometry y="60" width="250" height="30" as="geometry" />
        </mxCell>
        <mxCell id="bSXzpv6cc1hzMu8H0dgz-133" value="FK" style="shape=partialRectangle;overflow=hidden;connectable=0;fillColor=none;top=0;left=0;bottom=0;right=0;labelBackgroundColor=none;strokeColor=#006658;fontColor=#5C5C5C;rounded=1;fontStyle=1" vertex="1" parent="bSXzpv6cc1hzMu8H0dgz-132">
          <mxGeometry width="30" height="30" as="geometry">
            <mxRectangle width="30" height="30" as="alternateBounds" />
          </mxGeometry>
        </mxCell>
        <mxCell id="bSXzpv6cc1hzMu8H0dgz-134" value="Piattaforma id" style="shape=partialRectangle;overflow=hidden;connectable=0;fillColor=none;top=0;left=0;bottom=0;right=0;align=left;spacingLeft=6;labelBackgroundColor=none;strokeColor=#006658;fontColor=#5C5C5C;rounded=1;fontStyle=5" vertex="1" parent="bSXzpv6cc1hzMu8H0dgz-132">
          <mxGeometry x="30" width="220" height="30" as="geometry">
            <mxRectangle width="220" height="30" as="alternateBounds" />
          </mxGeometry>
        </mxCell>
        <mxCell id="bSXzpv6cc1hzMu8H0dgz-135" style="shape=partialRectangle;collapsible=0;dropTarget=0;pointerEvents=0;fillColor=none;points=[[0,0.5],[1,0.5]];portConstraint=eastwest;top=0;left=0;right=0;bottom=0;labelBackgroundColor=none;strokeColor=#006658;fontColor=#5C5C5C;rounded=1;" vertex="1" parent="bSXzpv6cc1hzMu8H0dgz-128">
          <mxGeometry y="90" width="250" height="30" as="geometry" />
        </mxCell>
        <mxCell id="bSXzpv6cc1hzMu8H0dgz-136" value="FK" style="shape=partialRectangle;overflow=hidden;connectable=0;fillColor=none;top=0;left=0;bottom=0;right=0;labelBackgroundColor=none;strokeColor=#006658;fontColor=#5C5C5C;rounded=1;fontStyle=1" vertex="1" parent="bSXzpv6cc1hzMu8H0dgz-135">
          <mxGeometry width="30" height="30" as="geometry">
            <mxRectangle width="30" height="30" as="alternateBounds" />
          </mxGeometry>
        </mxCell>
        <mxCell id="bSXzpv6cc1hzMu8H0dgz-137" value="Video Game id" style="shape=partialRectangle;overflow=hidden;connectable=0;fillColor=none;top=0;left=0;bottom=0;right=0;align=left;spacingLeft=6;labelBackgroundColor=none;strokeColor=#006658;fontColor=#5C5C5C;rounded=1;fontStyle=5" vertex="1" parent="bSXzpv6cc1hzMu8H0dgz-135">
          <mxGeometry x="30" width="220" height="30" as="geometry">
            <mxRectangle width="220" height="30" as="alternateBounds" />
          </mxGeometry>
        </mxCell>
        <mxCell id="bSXzpv6cc1hzMu8H0dgz-138" value="" style="endArrow=none;html=1;rounded=1;edgeStyle=orthogonalEdgeStyle;elbow=vertical;labelBackgroundColor=none;strokeColor=#006658;fontColor=default;exitX=1;exitY=0.5;exitDx=0;exitDy=0;entryX=1;entryY=0.5;entryDx=0;entryDy=0;" edge="1" parent="1" source="bSXzpv6cc1hzMu8H0dgz-135" target="C-vyLk0tnHw3VtMMgP7b-24">
          <mxGeometry relative="1" as="geometry">
            <mxPoint x="380" y="670" as="sourcePoint" />
            <mxPoint x="229" y="336.9899999999998" as="targetPoint" />
            <Array as="points">
              <mxPoint x="280" y="-65" />
              <mxPoint x="280" y="165" />
            </Array>
          </mxGeometry>
        </mxCell>
        <mxCell id="bSXzpv6cc1hzMu8H0dgz-139" value="&lt;b&gt;&lt;font style=&quot;font-size: 16px;&quot;&gt;n&lt;/font&gt;&lt;/b&gt;" style="resizable=0;html=1;whiteSpace=wrap;align=left;verticalAlign=bottom;rounded=1;labelBackgroundColor=none;fillColor=#21C0A5;strokeColor=#006658;fontColor=#5C5C5C;" connectable="0" vertex="1" parent="bSXzpv6cc1hzMu8H0dgz-138">
          <mxGeometry x="-1" relative="1" as="geometry">
            <mxPoint x="10" y="-5" as="offset" />
          </mxGeometry>
        </mxCell>
        <mxCell id="bSXzpv6cc1hzMu8H0dgz-140" value="&lt;font style=&quot;font-size: 16px;&quot;&gt;&lt;b&gt;n&lt;/b&gt;&lt;/font&gt;" style="resizable=0;html=1;whiteSpace=wrap;align=right;verticalAlign=bottom;rounded=1;labelBackgroundColor=none;fillColor=#21C0A5;strokeColor=#006658;fontColor=#5C5C5C;" connectable="0" vertex="1" parent="bSXzpv6cc1hzMu8H0dgz-138">
          <mxGeometry x="1" relative="1" as="geometry">
            <mxPoint x="20" as="offset" />
          </mxGeometry>
        </mxCell>
        <mxCell id="bSXzpv6cc1hzMu8H0dgz-144" value="" style="endArrow=none;html=1;rounded=1;edgeStyle=orthogonalEdgeStyle;elbow=vertical;labelBackgroundColor=none;strokeColor=#006658;fontColor=default;exitX=0;exitY=0.5;exitDx=0;exitDy=0;entryX=0;entryY=0.5;entryDx=0;entryDy=0;" edge="1" parent="1" source="bSXzpv6cc1hzMu8H0dgz-46" target="bSXzpv6cc1hzMu8H0dgz-132">
          <mxGeometry relative="1" as="geometry">
            <mxPoint x="271" y="108" as="sourcePoint" />
            <mxPoint x="270" y="-50" as="targetPoint" />
            <Array as="points">
              <mxPoint x="-80" y="-315" />
              <mxPoint x="-80" y="-95" />
            </Array>
          </mxGeometry>
        </mxCell>
        <mxCell id="bSXzpv6cc1hzMu8H0dgz-145" value="&lt;b&gt;&lt;font style=&quot;font-size: 16px;&quot;&gt;n&lt;/font&gt;&lt;/b&gt;" style="resizable=0;html=1;whiteSpace=wrap;align=left;verticalAlign=bottom;rounded=1;labelBackgroundColor=none;fillColor=#21C0A5;strokeColor=#006658;fontColor=#5C5C5C;" connectable="0" vertex="1" parent="bSXzpv6cc1hzMu8H0dgz-144">
          <mxGeometry x="-1" relative="1" as="geometry">
            <mxPoint x="-20" y="-5" as="offset" />
          </mxGeometry>
        </mxCell>
        <mxCell id="bSXzpv6cc1hzMu8H0dgz-146" value="&lt;font style=&quot;font-size: 16px;&quot;&gt;&lt;b&gt;n&lt;/b&gt;&lt;/font&gt;" style="resizable=0;html=1;whiteSpace=wrap;align=right;verticalAlign=bottom;rounded=1;labelBackgroundColor=none;fillColor=#21C0A5;strokeColor=#006658;fontColor=#5C5C5C;" connectable="0" vertex="1" parent="bSXzpv6cc1hzMu8H0dgz-144">
          <mxGeometry x="1" relative="1" as="geometry">
            <mxPoint x="-11" y="-5" as="offset" />
          </mxGeometry>
        </mxCell>
        <mxCell id="bSXzpv6cc1hzMu8H0dgz-147" value="Torneo" style="shape=table;startSize=30;container=1;collapsible=1;childLayout=tableLayout;fixedRows=1;rowLines=0;fontStyle=1;align=center;resizeLast=1;labelBackgroundColor=none;fillColor=#a20025;strokeColor=#6F0000;rounded=1;fontColor=#ffffff;" vertex="1" parent="1">
          <mxGeometry x="-710" y="150" width="250" height="180" as="geometry" />
        </mxCell>
        <mxCell id="bSXzpv6cc1hzMu8H0dgz-148" value="" style="shape=partialRectangle;collapsible=0;dropTarget=0;pointerEvents=0;fillColor=none;points=[[0,0.5],[1,0.5]];portConstraint=eastwest;top=0;left=0;right=0;bottom=1;labelBackgroundColor=none;strokeColor=#006658;fontColor=#5C5C5C;rounded=1;" vertex="1" parent="bSXzpv6cc1hzMu8H0dgz-147">
          <mxGeometry y="30" width="250" height="30" as="geometry" />
        </mxCell>
        <mxCell id="bSXzpv6cc1hzMu8H0dgz-149" value="PK" style="shape=partialRectangle;overflow=hidden;connectable=0;fillColor=none;top=0;left=0;bottom=0;right=0;fontStyle=1;labelBackgroundColor=none;strokeColor=#006658;fontColor=#5C5C5C;rounded=1;" vertex="1" parent="bSXzpv6cc1hzMu8H0dgz-148">
          <mxGeometry width="30" height="30" as="geometry">
            <mxRectangle width="30" height="30" as="alternateBounds" />
          </mxGeometry>
        </mxCell>
        <mxCell id="bSXzpv6cc1hzMu8H0dgz-150" value="UniqueID" style="shape=partialRectangle;overflow=hidden;connectable=0;fillColor=none;top=0;left=0;bottom=0;right=0;align=left;spacingLeft=6;fontStyle=5;labelBackgroundColor=none;strokeColor=#006658;fontColor=#5C5C5C;rounded=1;" vertex="1" parent="bSXzpv6cc1hzMu8H0dgz-148">
          <mxGeometry x="30" width="220" height="30" as="geometry">
            <mxRectangle width="220" height="30" as="alternateBounds" />
          </mxGeometry>
        </mxCell>
        <mxCell id="bSXzpv6cc1hzMu8H0dgz-151" value="" style="shape=partialRectangle;collapsible=0;dropTarget=0;pointerEvents=0;fillColor=none;points=[[0,0.5],[1,0.5]];portConstraint=eastwest;top=0;left=0;right=0;bottom=0;labelBackgroundColor=none;strokeColor=#006658;fontColor=#5C5C5C;rounded=1;" vertex="1" parent="bSXzpv6cc1hzMu8H0dgz-147">
          <mxGeometry y="60" width="250" height="30" as="geometry" />
        </mxCell>
        <mxCell id="bSXzpv6cc1hzMu8H0dgz-152" value="" style="shape=partialRectangle;overflow=hidden;connectable=0;fillColor=none;top=0;left=0;bottom=0;right=0;labelBackgroundColor=none;strokeColor=#006658;fontColor=#5C5C5C;rounded=1;" vertex="1" parent="bSXzpv6cc1hzMu8H0dgz-151">
          <mxGeometry width="30" height="30" as="geometry">
            <mxRectangle width="30" height="30" as="alternateBounds" />
          </mxGeometry>
        </mxCell>
        <mxCell id="bSXzpv6cc1hzMu8H0dgz-153" value="Nome" style="shape=partialRectangle;overflow=hidden;connectable=0;fillColor=none;top=0;left=0;bottom=0;right=0;align=left;spacingLeft=6;labelBackgroundColor=none;strokeColor=#006658;fontColor=#5C5C5C;rounded=1;" vertex="1" parent="bSXzpv6cc1hzMu8H0dgz-151">
          <mxGeometry x="30" width="220" height="30" as="geometry">
            <mxRectangle width="220" height="30" as="alternateBounds" />
          </mxGeometry>
        </mxCell>
        <mxCell id="bSXzpv6cc1hzMu8H0dgz-154" style="shape=partialRectangle;collapsible=0;dropTarget=0;pointerEvents=0;fillColor=none;points=[[0,0.5],[1,0.5]];portConstraint=eastwest;top=0;left=0;right=0;bottom=0;labelBackgroundColor=none;strokeColor=#006658;fontColor=#5C5C5C;rounded=1;" vertex="1" parent="bSXzpv6cc1hzMu8H0dgz-147">
          <mxGeometry y="90" width="250" height="30" as="geometry" />
        </mxCell>
        <mxCell id="bSXzpv6cc1hzMu8H0dgz-155" style="shape=partialRectangle;overflow=hidden;connectable=0;fillColor=none;top=0;left=0;bottom=0;right=0;labelBackgroundColor=none;strokeColor=#006658;fontColor=#5C5C5C;rounded=1;" vertex="1" parent="bSXzpv6cc1hzMu8H0dgz-154">
          <mxGeometry width="30" height="30" as="geometry">
            <mxRectangle width="30" height="30" as="alternateBounds" />
          </mxGeometry>
        </mxCell>
        <mxCell id="bSXzpv6cc1hzMu8H0dgz-156" value="Anno" style="shape=partialRectangle;overflow=hidden;connectable=0;fillColor=none;top=0;left=0;bottom=0;right=0;align=left;spacingLeft=6;labelBackgroundColor=none;strokeColor=#006658;fontColor=#5C5C5C;rounded=1;" vertex="1" parent="bSXzpv6cc1hzMu8H0dgz-154">
          <mxGeometry x="30" width="220" height="30" as="geometry">
            <mxRectangle width="220" height="30" as="alternateBounds" />
          </mxGeometry>
        </mxCell>
        <mxCell id="bSXzpv6cc1hzMu8H0dgz-157" style="shape=partialRectangle;collapsible=0;dropTarget=0;pointerEvents=0;fillColor=none;points=[[0,0.5],[1,0.5]];portConstraint=eastwest;top=0;left=0;right=0;bottom=0;labelBackgroundColor=none;strokeColor=#006658;fontColor=#5C5C5C;rounded=1;" vertex="1" parent="bSXzpv6cc1hzMu8H0dgz-147">
          <mxGeometry y="120" width="250" height="30" as="geometry" />
        </mxCell>
        <mxCell id="bSXzpv6cc1hzMu8H0dgz-158" style="shape=partialRectangle;overflow=hidden;connectable=0;fillColor=none;top=0;left=0;bottom=0;right=0;labelBackgroundColor=none;strokeColor=#006658;fontColor=#5C5C5C;rounded=1;" vertex="1" parent="bSXzpv6cc1hzMu8H0dgz-157">
          <mxGeometry width="30" height="30" as="geometry">
            <mxRectangle width="30" height="30" as="alternateBounds" />
          </mxGeometry>
        </mxCell>
        <mxCell id="bSXzpv6cc1hzMu8H0dgz-159" value="Città" style="shape=partialRectangle;overflow=hidden;connectable=0;fillColor=none;top=0;left=0;bottom=0;right=0;align=left;spacingLeft=6;labelBackgroundColor=none;strokeColor=#006658;fontColor=#5C5C5C;rounded=1;" vertex="1" parent="bSXzpv6cc1hzMu8H0dgz-157">
          <mxGeometry x="30" width="220" height="30" as="geometry">
            <mxRectangle width="220" height="30" as="alternateBounds" />
          </mxGeometry>
        </mxCell>
        <mxCell id="bSXzpv6cc1hzMu8H0dgz-304" style="shape=partialRectangle;collapsible=0;dropTarget=0;pointerEvents=0;fillColor=none;points=[[0,0.5],[1,0.5]];portConstraint=eastwest;top=0;left=0;right=0;bottom=0;labelBackgroundColor=none;strokeColor=#006658;fontColor=#5C5C5C;rounded=1;" vertex="1" parent="bSXzpv6cc1hzMu8H0dgz-147">
          <mxGeometry y="150" width="250" height="30" as="geometry" />
        </mxCell>
        <mxCell id="bSXzpv6cc1hzMu8H0dgz-305" value="FK" style="shape=partialRectangle;overflow=hidden;connectable=0;fillColor=none;top=0;left=0;bottom=0;right=0;labelBackgroundColor=none;strokeColor=#006658;fontColor=#5C5C5C;rounded=1;fontStyle=1" vertex="1" parent="bSXzpv6cc1hzMu8H0dgz-304">
          <mxGeometry width="30" height="30" as="geometry">
            <mxRectangle width="30" height="30" as="alternateBounds" />
          </mxGeometry>
        </mxCell>
        <mxCell id="bSXzpv6cc1hzMu8H0dgz-306" value="Video Gioco id" style="shape=partialRectangle;overflow=hidden;connectable=0;fillColor=none;top=0;left=0;bottom=0;right=0;align=left;spacingLeft=6;labelBackgroundColor=none;strokeColor=#006658;fontColor=#5C5C5C;rounded=1;fontStyle=5" vertex="1" parent="bSXzpv6cc1hzMu8H0dgz-304">
          <mxGeometry x="30" width="220" height="30" as="geometry">
            <mxRectangle width="220" height="30" as="alternateBounds" />
          </mxGeometry>
        </mxCell>
        <mxCell id="bSXzpv6cc1hzMu8H0dgz-172" value="Giocatore" style="shape=table;startSize=30;container=1;collapsible=1;childLayout=tableLayout;fixedRows=1;rowLines=0;fontStyle=1;align=center;resizeLast=1;labelBackgroundColor=none;fillColor=#21C0A5;strokeColor=#006658;fontColor=#5C5C5C;rounded=1;" vertex="1" parent="1">
          <mxGeometry x="-430" y="600" width="250" height="180" as="geometry" />
        </mxCell>
        <mxCell id="bSXzpv6cc1hzMu8H0dgz-173" value="" style="shape=partialRectangle;collapsible=0;dropTarget=0;pointerEvents=0;fillColor=none;points=[[0,0.5],[1,0.5]];portConstraint=eastwest;top=0;left=0;right=0;bottom=1;labelBackgroundColor=none;strokeColor=#006658;fontColor=#5C5C5C;rounded=1;" vertex="1" parent="bSXzpv6cc1hzMu8H0dgz-172">
          <mxGeometry y="30" width="250" height="30" as="geometry" />
        </mxCell>
        <mxCell id="bSXzpv6cc1hzMu8H0dgz-174" value="PK" style="shape=partialRectangle;overflow=hidden;connectable=0;fillColor=none;top=0;left=0;bottom=0;right=0;fontStyle=1;labelBackgroundColor=none;strokeColor=#006658;fontColor=#5C5C5C;rounded=1;" vertex="1" parent="bSXzpv6cc1hzMu8H0dgz-173">
          <mxGeometry width="30" height="30" as="geometry">
            <mxRectangle width="30" height="30" as="alternateBounds" />
          </mxGeometry>
        </mxCell>
        <mxCell id="bSXzpv6cc1hzMu8H0dgz-175" value="UniqueID" style="shape=partialRectangle;overflow=hidden;connectable=0;fillColor=none;top=0;left=0;bottom=0;right=0;align=left;spacingLeft=6;fontStyle=5;labelBackgroundColor=none;strokeColor=#006658;fontColor=#5C5C5C;rounded=1;" vertex="1" parent="bSXzpv6cc1hzMu8H0dgz-173">
          <mxGeometry x="30" width="220" height="30" as="geometry">
            <mxRectangle width="220" height="30" as="alternateBounds" />
          </mxGeometry>
        </mxCell>
        <mxCell id="bSXzpv6cc1hzMu8H0dgz-176" value="" style="shape=partialRectangle;collapsible=0;dropTarget=0;pointerEvents=0;fillColor=none;points=[[0,0.5],[1,0.5]];portConstraint=eastwest;top=0;left=0;right=0;bottom=0;labelBackgroundColor=none;strokeColor=#006658;fontColor=#5C5C5C;rounded=1;" vertex="1" parent="bSXzpv6cc1hzMu8H0dgz-172">
          <mxGeometry y="60" width="250" height="30" as="geometry" />
        </mxCell>
        <mxCell id="bSXzpv6cc1hzMu8H0dgz-177" value="" style="shape=partialRectangle;overflow=hidden;connectable=0;fillColor=none;top=0;left=0;bottom=0;right=0;labelBackgroundColor=none;strokeColor=#006658;fontColor=#5C5C5C;rounded=1;" vertex="1" parent="bSXzpv6cc1hzMu8H0dgz-176">
          <mxGeometry width="30" height="30" as="geometry">
            <mxRectangle width="30" height="30" as="alternateBounds" />
          </mxGeometry>
        </mxCell>
        <mxCell id="bSXzpv6cc1hzMu8H0dgz-178" value="Nome" style="shape=partialRectangle;overflow=hidden;connectable=0;fillColor=none;top=0;left=0;bottom=0;right=0;align=left;spacingLeft=6;labelBackgroundColor=none;strokeColor=#006658;fontColor=#5C5C5C;rounded=1;" vertex="1" parent="bSXzpv6cc1hzMu8H0dgz-176">
          <mxGeometry x="30" width="220" height="30" as="geometry">
            <mxRectangle width="220" height="30" as="alternateBounds" />
          </mxGeometry>
        </mxCell>
        <mxCell id="bSXzpv6cc1hzMu8H0dgz-179" style="shape=partialRectangle;collapsible=0;dropTarget=0;pointerEvents=0;fillColor=none;points=[[0,0.5],[1,0.5]];portConstraint=eastwest;top=0;left=0;right=0;bottom=0;labelBackgroundColor=none;strokeColor=#006658;fontColor=#5C5C5C;rounded=1;" vertex="1" parent="bSXzpv6cc1hzMu8H0dgz-172">
          <mxGeometry y="90" width="250" height="30" as="geometry" />
        </mxCell>
        <mxCell id="bSXzpv6cc1hzMu8H0dgz-180" style="shape=partialRectangle;overflow=hidden;connectable=0;fillColor=none;top=0;left=0;bottom=0;right=0;labelBackgroundColor=none;strokeColor=#006658;fontColor=#5C5C5C;rounded=1;" vertex="1" parent="bSXzpv6cc1hzMu8H0dgz-179">
          <mxGeometry width="30" height="30" as="geometry">
            <mxRectangle width="30" height="30" as="alternateBounds" />
          </mxGeometry>
        </mxCell>
        <mxCell id="bSXzpv6cc1hzMu8H0dgz-181" value="Cognome" style="shape=partialRectangle;overflow=hidden;connectable=0;fillColor=none;top=0;left=0;bottom=0;right=0;align=left;spacingLeft=6;labelBackgroundColor=none;strokeColor=#006658;fontColor=#5C5C5C;rounded=1;" vertex="1" parent="bSXzpv6cc1hzMu8H0dgz-179">
          <mxGeometry x="30" width="220" height="30" as="geometry">
            <mxRectangle width="220" height="30" as="alternateBounds" />
          </mxGeometry>
        </mxCell>
        <mxCell id="bSXzpv6cc1hzMu8H0dgz-185" style="shape=partialRectangle;collapsible=0;dropTarget=0;pointerEvents=0;fillColor=none;points=[[0,0.5],[1,0.5]];portConstraint=eastwest;top=0;left=0;right=0;bottom=0;labelBackgroundColor=none;strokeColor=#006658;fontColor=#5C5C5C;rounded=1;" vertex="1" parent="bSXzpv6cc1hzMu8H0dgz-172">
          <mxGeometry y="120" width="250" height="30" as="geometry" />
        </mxCell>
        <mxCell id="bSXzpv6cc1hzMu8H0dgz-186" style="shape=partialRectangle;overflow=hidden;connectable=0;fillColor=none;top=0;left=0;bottom=0;right=0;labelBackgroundColor=none;strokeColor=#006658;fontColor=#5C5C5C;rounded=1;" vertex="1" parent="bSXzpv6cc1hzMu8H0dgz-185">
          <mxGeometry width="30" height="30" as="geometry">
            <mxRectangle width="30" height="30" as="alternateBounds" />
          </mxGeometry>
        </mxCell>
        <mxCell id="bSXzpv6cc1hzMu8H0dgz-187" value="NickName" style="shape=partialRectangle;overflow=hidden;connectable=0;fillColor=none;top=0;left=0;bottom=0;right=0;align=left;spacingLeft=6;labelBackgroundColor=none;strokeColor=#006658;fontColor=#5C5C5C;rounded=1;" vertex="1" parent="bSXzpv6cc1hzMu8H0dgz-185">
          <mxGeometry x="30" width="220" height="30" as="geometry">
            <mxRectangle width="220" height="30" as="alternateBounds" />
          </mxGeometry>
        </mxCell>
        <mxCell id="bSXzpv6cc1hzMu8H0dgz-182" style="shape=partialRectangle;collapsible=0;dropTarget=0;pointerEvents=0;fillColor=none;points=[[0,0.5],[1,0.5]];portConstraint=eastwest;top=0;left=0;right=0;bottom=0;labelBackgroundColor=none;strokeColor=#006658;fontColor=#5C5C5C;rounded=1;" vertex="1" parent="bSXzpv6cc1hzMu8H0dgz-172">
          <mxGeometry y="150" width="250" height="30" as="geometry" />
        </mxCell>
        <mxCell id="bSXzpv6cc1hzMu8H0dgz-183" style="shape=partialRectangle;overflow=hidden;connectable=0;fillColor=none;top=0;left=0;bottom=0;right=0;labelBackgroundColor=none;strokeColor=#006658;fontColor=#5C5C5C;rounded=1;" vertex="1" parent="bSXzpv6cc1hzMu8H0dgz-182">
          <mxGeometry width="30" height="30" as="geometry">
            <mxRectangle width="30" height="30" as="alternateBounds" />
          </mxGeometry>
        </mxCell>
        <mxCell id="bSXzpv6cc1hzMu8H0dgz-184" value="Città" style="shape=partialRectangle;overflow=hidden;connectable=0;fillColor=none;top=0;left=0;bottom=0;right=0;align=left;spacingLeft=6;labelBackgroundColor=none;strokeColor=#006658;fontColor=#5C5C5C;rounded=1;" vertex="1" parent="bSXzpv6cc1hzMu8H0dgz-182">
          <mxGeometry x="30" width="220" height="30" as="geometry">
            <mxRectangle width="220" height="30" as="alternateBounds" />
          </mxGeometry>
        </mxCell>
        <mxCell id="bSXzpv6cc1hzMu8H0dgz-188" value="" style="endArrow=none;html=1;rounded=1;edgeStyle=orthogonalEdgeStyle;elbow=vertical;labelBackgroundColor=none;strokeColor=#006658;fontColor=default;exitX=0;exitY=0.5;exitDx=0;exitDy=0;entryX=0;entryY=0.5;entryDx=0;entryDy=0;" edge="1" parent="1" source="bSXzpv6cc1hzMu8H0dgz-148" target="bSXzpv6cc1hzMu8H0dgz-198">
          <mxGeometry relative="1" as="geometry">
            <mxPoint x="-699" y="810" as="sourcePoint" />
            <mxPoint x="-860" y="740" as="targetPoint" />
            <Array as="points">
              <mxPoint x="-870" y="195" />
              <mxPoint x="-870" y="725" />
            </Array>
          </mxGeometry>
        </mxCell>
        <mxCell id="bSXzpv6cc1hzMu8H0dgz-189" value="&lt;b&gt;&lt;font style=&quot;font-size: 16px;&quot;&gt;n&lt;/font&gt;&lt;/b&gt;" style="resizable=0;html=1;whiteSpace=wrap;align=left;verticalAlign=bottom;rounded=1;labelBackgroundColor=none;fillColor=#21C0A5;strokeColor=#006658;fontColor=#5C5C5C;" connectable="0" vertex="1" parent="bSXzpv6cc1hzMu8H0dgz-188">
          <mxGeometry x="-1" relative="1" as="geometry">
            <mxPoint x="-20" y="-5" as="offset" />
          </mxGeometry>
        </mxCell>
        <mxCell id="bSXzpv6cc1hzMu8H0dgz-190" value="&lt;font style=&quot;font-size: 16px;&quot;&gt;&lt;b&gt;n&lt;/b&gt;&lt;/font&gt;" style="resizable=0;html=1;whiteSpace=wrap;align=right;verticalAlign=bottom;rounded=1;labelBackgroundColor=none;fillColor=#21C0A5;strokeColor=#006658;fontColor=#5C5C5C;" connectable="0" vertex="1" parent="bSXzpv6cc1hzMu8H0dgz-188">
          <mxGeometry x="1" relative="1" as="geometry">
            <mxPoint x="-10" y="-5" as="offset" />
          </mxGeometry>
        </mxCell>
        <mxCell id="bSXzpv6cc1hzMu8H0dgz-191" value="Giocatore Torneo" style="shape=table;startSize=30;container=1;collapsible=1;childLayout=tableLayout;fixedRows=1;rowLines=0;fontStyle=1;align=center;resizeLast=1;labelBackgroundColor=none;fillColor=#21C0A5;strokeColor=#006658;fontColor=#5C5C5C;rounded=1;" vertex="1" parent="1">
          <mxGeometry x="-830" y="620" width="250" height="120" as="geometry" />
        </mxCell>
        <mxCell id="bSXzpv6cc1hzMu8H0dgz-192" value="" style="shape=partialRectangle;collapsible=0;dropTarget=0;pointerEvents=0;fillColor=none;points=[[0,0.5],[1,0.5]];portConstraint=eastwest;top=0;left=0;right=0;bottom=1;labelBackgroundColor=none;strokeColor=#006658;fontColor=#5C5C5C;rounded=1;" vertex="1" parent="bSXzpv6cc1hzMu8H0dgz-191">
          <mxGeometry y="30" width="250" height="30" as="geometry" />
        </mxCell>
        <mxCell id="bSXzpv6cc1hzMu8H0dgz-193" value="PK" style="shape=partialRectangle;overflow=hidden;connectable=0;fillColor=none;top=0;left=0;bottom=0;right=0;fontStyle=1;labelBackgroundColor=none;strokeColor=#006658;fontColor=#5C5C5C;rounded=1;" vertex="1" parent="bSXzpv6cc1hzMu8H0dgz-192">
          <mxGeometry width="30" height="30" as="geometry">
            <mxRectangle width="30" height="30" as="alternateBounds" />
          </mxGeometry>
        </mxCell>
        <mxCell id="bSXzpv6cc1hzMu8H0dgz-194" value="UniqueID" style="shape=partialRectangle;overflow=hidden;connectable=0;fillColor=none;top=0;left=0;bottom=0;right=0;align=left;spacingLeft=6;fontStyle=5;labelBackgroundColor=none;strokeColor=#006658;fontColor=#5C5C5C;rounded=1;" vertex="1" parent="bSXzpv6cc1hzMu8H0dgz-192">
          <mxGeometry x="30" width="220" height="30" as="geometry">
            <mxRectangle width="220" height="30" as="alternateBounds" />
          </mxGeometry>
        </mxCell>
        <mxCell id="bSXzpv6cc1hzMu8H0dgz-195" value="" style="shape=partialRectangle;collapsible=0;dropTarget=0;pointerEvents=0;fillColor=none;points=[[0,0.5],[1,0.5]];portConstraint=eastwest;top=0;left=0;right=0;bottom=0;labelBackgroundColor=none;strokeColor=#006658;fontColor=#5C5C5C;rounded=1;" vertex="1" parent="bSXzpv6cc1hzMu8H0dgz-191">
          <mxGeometry y="60" width="250" height="30" as="geometry" />
        </mxCell>
        <mxCell id="bSXzpv6cc1hzMu8H0dgz-196" value="FK" style="shape=partialRectangle;overflow=hidden;connectable=0;fillColor=none;top=0;left=0;bottom=0;right=0;labelBackgroundColor=none;strokeColor=#006658;fontColor=#5C5C5C;rounded=1;fontStyle=1" vertex="1" parent="bSXzpv6cc1hzMu8H0dgz-195">
          <mxGeometry width="30" height="30" as="geometry">
            <mxRectangle width="30" height="30" as="alternateBounds" />
          </mxGeometry>
        </mxCell>
        <mxCell id="bSXzpv6cc1hzMu8H0dgz-197" value="Giocatore id" style="shape=partialRectangle;overflow=hidden;connectable=0;fillColor=none;top=0;left=0;bottom=0;right=0;align=left;spacingLeft=6;labelBackgroundColor=none;strokeColor=#006658;fontColor=#5C5C5C;rounded=1;fontStyle=5" vertex="1" parent="bSXzpv6cc1hzMu8H0dgz-195">
          <mxGeometry x="30" width="220" height="30" as="geometry">
            <mxRectangle width="220" height="30" as="alternateBounds" />
          </mxGeometry>
        </mxCell>
        <mxCell id="bSXzpv6cc1hzMu8H0dgz-198" style="shape=partialRectangle;collapsible=0;dropTarget=0;pointerEvents=0;fillColor=none;points=[[0,0.5],[1,0.5]];portConstraint=eastwest;top=0;left=0;right=0;bottom=0;labelBackgroundColor=none;strokeColor=#006658;fontColor=#5C5C5C;rounded=1;" vertex="1" parent="bSXzpv6cc1hzMu8H0dgz-191">
          <mxGeometry y="90" width="250" height="30" as="geometry" />
        </mxCell>
        <mxCell id="bSXzpv6cc1hzMu8H0dgz-199" value="FK" style="shape=partialRectangle;overflow=hidden;connectable=0;fillColor=none;top=0;left=0;bottom=0;right=0;labelBackgroundColor=none;strokeColor=#006658;fontColor=#5C5C5C;rounded=1;fontStyle=1" vertex="1" parent="bSXzpv6cc1hzMu8H0dgz-198">
          <mxGeometry width="30" height="30" as="geometry">
            <mxRectangle width="30" height="30" as="alternateBounds" />
          </mxGeometry>
        </mxCell>
        <mxCell id="bSXzpv6cc1hzMu8H0dgz-200" value="Torneo id" style="shape=partialRectangle;overflow=hidden;connectable=0;fillColor=none;top=0;left=0;bottom=0;right=0;align=left;spacingLeft=6;labelBackgroundColor=none;strokeColor=#006658;fontColor=#5C5C5C;rounded=1;fontStyle=5" vertex="1" parent="bSXzpv6cc1hzMu8H0dgz-198">
          <mxGeometry x="30" width="220" height="30" as="geometry">
            <mxRectangle width="220" height="30" as="alternateBounds" />
          </mxGeometry>
        </mxCell>
        <mxCell id="bSXzpv6cc1hzMu8H0dgz-201" value="" style="endArrow=none;html=1;rounded=1;edgeStyle=orthogonalEdgeStyle;elbow=vertical;labelBackgroundColor=none;strokeColor=#006658;fontColor=default;exitX=1;exitY=0.5;exitDx=0;exitDy=0;entryX=0;entryY=0.5;entryDx=0;entryDy=0;" edge="1" parent="1" source="bSXzpv6cc1hzMu8H0dgz-195" target="bSXzpv6cc1hzMu8H0dgz-173">
          <mxGeometry relative="1" as="geometry">
            <mxPoint x="-630" y="750" as="sourcePoint" />
            <mxPoint x="-500" y="830" as="targetPoint" />
            <Array as="points">
              <mxPoint x="-510" y="695" />
              <mxPoint x="-510" y="645" />
            </Array>
          </mxGeometry>
        </mxCell>
        <mxCell id="bSXzpv6cc1hzMu8H0dgz-202" value="&lt;b&gt;&lt;font style=&quot;font-size: 16px;&quot;&gt;n&lt;/font&gt;&lt;/b&gt;" style="resizable=0;html=1;whiteSpace=wrap;align=left;verticalAlign=bottom;rounded=1;labelBackgroundColor=none;fillColor=#21C0A5;strokeColor=#006658;fontColor=#5C5C5C;" connectable="0" vertex="1" parent="bSXzpv6cc1hzMu8H0dgz-201">
          <mxGeometry x="-1" relative="1" as="geometry">
            <mxPoint x="10" y="-5" as="offset" />
          </mxGeometry>
        </mxCell>
        <mxCell id="bSXzpv6cc1hzMu8H0dgz-203" value="&lt;font style=&quot;font-size: 16px;&quot;&gt;&lt;b&gt;n&lt;/b&gt;&lt;/font&gt;" style="resizable=0;html=1;whiteSpace=wrap;align=right;verticalAlign=bottom;rounded=1;labelBackgroundColor=none;fillColor=#21C0A5;strokeColor=#006658;fontColor=#5C5C5C;" connectable="0" vertex="1" parent="bSXzpv6cc1hzMu8H0dgz-201">
          <mxGeometry x="1" relative="1" as="geometry">
            <mxPoint x="-10" y="-5" as="offset" />
          </mxGeometry>
        </mxCell>
        <mxCell id="bSXzpv6cc1hzMu8H0dgz-217" value="Recensione" style="shape=table;startSize=30;container=1;collapsible=1;childLayout=tableLayout;fixedRows=1;rowLines=0;fontStyle=1;align=center;resizeLast=1;labelBackgroundColor=none;fillColor=#fff2cc;strokeColor=#d6b656;rounded=1;" vertex="1" parent="1">
          <mxGeometry x="1" y="720" width="250" height="210" as="geometry" />
        </mxCell>
        <mxCell id="bSXzpv6cc1hzMu8H0dgz-218" value="" style="shape=partialRectangle;collapsible=0;dropTarget=0;pointerEvents=0;fillColor=none;points=[[0,0.5],[1,0.5]];portConstraint=eastwest;top=0;left=0;right=0;bottom=1;labelBackgroundColor=none;strokeColor=#006658;fontColor=#5C5C5C;rounded=1;" vertex="1" parent="bSXzpv6cc1hzMu8H0dgz-217">
          <mxGeometry y="30" width="250" height="30" as="geometry" />
        </mxCell>
        <mxCell id="bSXzpv6cc1hzMu8H0dgz-219" value="PK" style="shape=partialRectangle;overflow=hidden;connectable=0;fillColor=none;top=0;left=0;bottom=0;right=0;fontStyle=1;labelBackgroundColor=none;strokeColor=#006658;fontColor=#5C5C5C;rounded=1;" vertex="1" parent="bSXzpv6cc1hzMu8H0dgz-218">
          <mxGeometry width="30" height="30" as="geometry">
            <mxRectangle width="30" height="30" as="alternateBounds" />
          </mxGeometry>
        </mxCell>
        <mxCell id="bSXzpv6cc1hzMu8H0dgz-220" value="UniqueID" style="shape=partialRectangle;overflow=hidden;connectable=0;fillColor=none;top=0;left=0;bottom=0;right=0;align=left;spacingLeft=6;fontStyle=5;labelBackgroundColor=none;strokeColor=#006658;fontColor=#5C5C5C;rounded=1;" vertex="1" parent="bSXzpv6cc1hzMu8H0dgz-218">
          <mxGeometry x="30" width="220" height="30" as="geometry">
            <mxRectangle width="220" height="30" as="alternateBounds" />
          </mxGeometry>
        </mxCell>
        <mxCell id="bSXzpv6cc1hzMu8H0dgz-221" value="" style="shape=partialRectangle;collapsible=0;dropTarget=0;pointerEvents=0;fillColor=none;points=[[0,0.5],[1,0.5]];portConstraint=eastwest;top=0;left=0;right=0;bottom=0;labelBackgroundColor=none;strokeColor=#006658;fontColor=#5C5C5C;rounded=1;" vertex="1" parent="bSXzpv6cc1hzMu8H0dgz-217">
          <mxGeometry y="60" width="250" height="30" as="geometry" />
        </mxCell>
        <mxCell id="bSXzpv6cc1hzMu8H0dgz-222" value="" style="shape=partialRectangle;overflow=hidden;connectable=0;fillColor=none;top=0;left=0;bottom=0;right=0;labelBackgroundColor=none;strokeColor=#006658;fontColor=#5C5C5C;rounded=1;" vertex="1" parent="bSXzpv6cc1hzMu8H0dgz-221">
          <mxGeometry width="30" height="30" as="geometry">
            <mxRectangle width="30" height="30" as="alternateBounds" />
          </mxGeometry>
        </mxCell>
        <mxCell id="bSXzpv6cc1hzMu8H0dgz-223" value="Titolo" style="shape=partialRectangle;overflow=hidden;connectable=0;fillColor=none;top=0;left=0;bottom=0;right=0;align=left;spacingLeft=6;labelBackgroundColor=none;strokeColor=#006658;fontColor=#5C5C5C;rounded=1;" vertex="1" parent="bSXzpv6cc1hzMu8H0dgz-221">
          <mxGeometry x="30" width="220" height="30" as="geometry">
            <mxRectangle width="220" height="30" as="alternateBounds" />
          </mxGeometry>
        </mxCell>
        <mxCell id="bSXzpv6cc1hzMu8H0dgz-224" style="shape=partialRectangle;collapsible=0;dropTarget=0;pointerEvents=0;fillColor=none;points=[[0,0.5],[1,0.5]];portConstraint=eastwest;top=0;left=0;right=0;bottom=0;labelBackgroundColor=none;strokeColor=#006658;fontColor=#5C5C5C;rounded=1;" vertex="1" parent="bSXzpv6cc1hzMu8H0dgz-217">
          <mxGeometry y="90" width="250" height="30" as="geometry" />
        </mxCell>
        <mxCell id="bSXzpv6cc1hzMu8H0dgz-225" style="shape=partialRectangle;overflow=hidden;connectable=0;fillColor=none;top=0;left=0;bottom=0;right=0;labelBackgroundColor=none;strokeColor=#006658;fontColor=#5C5C5C;rounded=1;" vertex="1" parent="bSXzpv6cc1hzMu8H0dgz-224">
          <mxGeometry width="30" height="30" as="geometry">
            <mxRectangle width="30" height="30" as="alternateBounds" />
          </mxGeometry>
        </mxCell>
        <mxCell id="bSXzpv6cc1hzMu8H0dgz-226" value="Descrizione" style="shape=partialRectangle;overflow=hidden;connectable=0;fillColor=none;top=0;left=0;bottom=0;right=0;align=left;spacingLeft=6;labelBackgroundColor=none;strokeColor=#006658;fontColor=#5C5C5C;rounded=1;" vertex="1" parent="bSXzpv6cc1hzMu8H0dgz-224">
          <mxGeometry x="30" width="220" height="30" as="geometry">
            <mxRectangle width="220" height="30" as="alternateBounds" />
          </mxGeometry>
        </mxCell>
        <mxCell id="bSXzpv6cc1hzMu8H0dgz-310" style="shape=partialRectangle;collapsible=0;dropTarget=0;pointerEvents=0;fillColor=none;points=[[0,0.5],[1,0.5]];portConstraint=eastwest;top=0;left=0;right=0;bottom=0;labelBackgroundColor=none;strokeColor=#006658;fontColor=#5C5C5C;rounded=1;" vertex="1" parent="bSXzpv6cc1hzMu8H0dgz-217">
          <mxGeometry y="120" width="250" height="30" as="geometry" />
        </mxCell>
        <mxCell id="bSXzpv6cc1hzMu8H0dgz-311" value="FK" style="shape=partialRectangle;overflow=hidden;connectable=0;fillColor=none;top=0;left=0;bottom=0;right=0;labelBackgroundColor=none;strokeColor=#006658;fontColor=#5C5C5C;rounded=1;fontStyle=1" vertex="1" parent="bSXzpv6cc1hzMu8H0dgz-310">
          <mxGeometry width="30" height="30" as="geometry">
            <mxRectangle width="30" height="30" as="alternateBounds" />
          </mxGeometry>
        </mxCell>
        <mxCell id="bSXzpv6cc1hzMu8H0dgz-312" value="Video Gioco id" style="shape=partialRectangle;overflow=hidden;connectable=0;fillColor=none;top=0;left=0;bottom=0;right=0;align=left;spacingLeft=6;labelBackgroundColor=none;strokeColor=#006658;fontColor=#5C5C5C;rounded=1;fontStyle=5" vertex="1" parent="bSXzpv6cc1hzMu8H0dgz-310">
          <mxGeometry x="30" width="220" height="30" as="geometry">
            <mxRectangle width="220" height="30" as="alternateBounds" />
          </mxGeometry>
        </mxCell>
        <mxCell id="bSXzpv6cc1hzMu8H0dgz-227" style="shape=partialRectangle;collapsible=0;dropTarget=0;pointerEvents=0;fillColor=none;points=[[0,0.5],[1,0.5]];portConstraint=eastwest;top=0;left=0;right=0;bottom=0;labelBackgroundColor=none;strokeColor=#006658;fontColor=#5C5C5C;rounded=1;" vertex="1" parent="bSXzpv6cc1hzMu8H0dgz-217">
          <mxGeometry y="150" width="250" height="30" as="geometry" />
        </mxCell>
        <mxCell id="bSXzpv6cc1hzMu8H0dgz-228" value="FK" style="shape=partialRectangle;overflow=hidden;connectable=0;fillColor=none;top=0;left=0;bottom=0;right=0;labelBackgroundColor=none;strokeColor=#006658;fontColor=#5C5C5C;rounded=1;fontStyle=1" vertex="1" parent="bSXzpv6cc1hzMu8H0dgz-227">
          <mxGeometry width="30" height="30" as="geometry">
            <mxRectangle width="30" height="30" as="alternateBounds" />
          </mxGeometry>
        </mxCell>
        <mxCell id="bSXzpv6cc1hzMu8H0dgz-229" value="Rating id" style="shape=partialRectangle;overflow=hidden;connectable=0;fillColor=none;top=0;left=0;bottom=0;right=0;align=left;spacingLeft=6;labelBackgroundColor=none;strokeColor=#006658;fontColor=#5C5C5C;rounded=1;fontStyle=5" vertex="1" parent="bSXzpv6cc1hzMu8H0dgz-227">
          <mxGeometry x="30" width="220" height="30" as="geometry">
            <mxRectangle width="220" height="30" as="alternateBounds" />
          </mxGeometry>
        </mxCell>
        <mxCell id="bSXzpv6cc1hzMu8H0dgz-316" style="shape=partialRectangle;collapsible=0;dropTarget=0;pointerEvents=0;fillColor=none;points=[[0,0.5],[1,0.5]];portConstraint=eastwest;top=0;left=0;right=0;bottom=0;labelBackgroundColor=none;strokeColor=#006658;fontColor=#5C5C5C;rounded=1;" vertex="1" parent="bSXzpv6cc1hzMu8H0dgz-217">
          <mxGeometry y="180" width="250" height="30" as="geometry" />
        </mxCell>
        <mxCell id="bSXzpv6cc1hzMu8H0dgz-317" value="FK" style="shape=partialRectangle;overflow=hidden;connectable=0;fillColor=none;top=0;left=0;bottom=0;right=0;labelBackgroundColor=none;strokeColor=#006658;fontColor=#5C5C5C;rounded=1;fontStyle=1" vertex="1" parent="bSXzpv6cc1hzMu8H0dgz-316">
          <mxGeometry width="30" height="30" as="geometry">
            <mxRectangle width="30" height="30" as="alternateBounds" />
          </mxGeometry>
        </mxCell>
        <mxCell id="bSXzpv6cc1hzMu8H0dgz-318" value="Giocatore id" style="shape=partialRectangle;overflow=hidden;connectable=0;fillColor=none;top=0;left=0;bottom=0;right=0;align=left;spacingLeft=6;labelBackgroundColor=none;strokeColor=#006658;fontColor=#5C5C5C;rounded=1;fontStyle=5" vertex="1" parent="bSXzpv6cc1hzMu8H0dgz-316">
          <mxGeometry x="30" width="220" height="30" as="geometry">
            <mxRectangle width="220" height="30" as="alternateBounds" />
          </mxGeometry>
        </mxCell>
        <mxCell id="bSXzpv6cc1hzMu8H0dgz-230" value="Rating" style="shape=table;startSize=30;container=1;collapsible=1;childLayout=tableLayout;fixedRows=1;rowLines=0;fontStyle=1;align=center;resizeLast=1;labelBackgroundColor=none;fillColor=#21C0A5;strokeColor=#006658;fontColor=#5C5C5C;rounded=1;" vertex="1" parent="1">
          <mxGeometry x="400" y="840" width="250" height="90" as="geometry" />
        </mxCell>
        <mxCell id="bSXzpv6cc1hzMu8H0dgz-231" value="" style="shape=partialRectangle;collapsible=0;dropTarget=0;pointerEvents=0;fillColor=none;points=[[0,0.5],[1,0.5]];portConstraint=eastwest;top=0;left=0;right=0;bottom=1;labelBackgroundColor=none;strokeColor=#006658;fontColor=#5C5C5C;rounded=1;" vertex="1" parent="bSXzpv6cc1hzMu8H0dgz-230">
          <mxGeometry y="30" width="250" height="30" as="geometry" />
        </mxCell>
        <mxCell id="bSXzpv6cc1hzMu8H0dgz-232" value="PK" style="shape=partialRectangle;overflow=hidden;connectable=0;fillColor=none;top=0;left=0;bottom=0;right=0;fontStyle=1;labelBackgroundColor=none;strokeColor=#006658;fontColor=#5C5C5C;rounded=1;" vertex="1" parent="bSXzpv6cc1hzMu8H0dgz-231">
          <mxGeometry width="30" height="30" as="geometry">
            <mxRectangle width="30" height="30" as="alternateBounds" />
          </mxGeometry>
        </mxCell>
        <mxCell id="bSXzpv6cc1hzMu8H0dgz-233" value="UniqueID" style="shape=partialRectangle;overflow=hidden;connectable=0;fillColor=none;top=0;left=0;bottom=0;right=0;align=left;spacingLeft=6;fontStyle=5;labelBackgroundColor=none;strokeColor=#006658;fontColor=#5C5C5C;rounded=1;" vertex="1" parent="bSXzpv6cc1hzMu8H0dgz-231">
          <mxGeometry x="30" width="220" height="30" as="geometry">
            <mxRectangle width="220" height="30" as="alternateBounds" />
          </mxGeometry>
        </mxCell>
        <mxCell id="bSXzpv6cc1hzMu8H0dgz-234" value="" style="shape=partialRectangle;collapsible=0;dropTarget=0;pointerEvents=0;fillColor=none;points=[[0,0.5],[1,0.5]];portConstraint=eastwest;top=0;left=0;right=0;bottom=0;labelBackgroundColor=none;strokeColor=#006658;fontColor=#5C5C5C;rounded=1;" vertex="1" parent="bSXzpv6cc1hzMu8H0dgz-230">
          <mxGeometry y="60" width="250" height="30" as="geometry" />
        </mxCell>
        <mxCell id="bSXzpv6cc1hzMu8H0dgz-235" value="" style="shape=partialRectangle;overflow=hidden;connectable=0;fillColor=none;top=0;left=0;bottom=0;right=0;labelBackgroundColor=none;strokeColor=#006658;fontColor=#5C5C5C;rounded=1;" vertex="1" parent="bSXzpv6cc1hzMu8H0dgz-234">
          <mxGeometry width="30" height="30" as="geometry">
            <mxRectangle width="30" height="30" as="alternateBounds" />
          </mxGeometry>
        </mxCell>
        <mxCell id="bSXzpv6cc1hzMu8H0dgz-236" value="Numero" style="shape=partialRectangle;overflow=hidden;connectable=0;fillColor=none;top=0;left=0;bottom=0;right=0;align=left;spacingLeft=6;labelBackgroundColor=none;strokeColor=#006658;fontColor=#5C5C5C;rounded=1;" vertex="1" parent="bSXzpv6cc1hzMu8H0dgz-234">
          <mxGeometry x="30" width="220" height="30" as="geometry">
            <mxRectangle width="220" height="30" as="alternateBounds" />
          </mxGeometry>
        </mxCell>
        <mxCell id="bSXzpv6cc1hzMu8H0dgz-243" value="" style="endArrow=none;html=1;rounded=1;entryX=0;entryY=0.5;entryDx=0;entryDy=0;edgeStyle=orthogonalEdgeStyle;elbow=vertical;labelBackgroundColor=none;strokeColor=#006658;fontColor=default;exitX=1;exitY=0.5;exitDx=0;exitDy=0;" edge="1" parent="1" source="bSXzpv6cc1hzMu8H0dgz-227" target="bSXzpv6cc1hzMu8H0dgz-231">
          <mxGeometry relative="1" as="geometry">
            <mxPoint x="240" y="880" as="sourcePoint" />
            <mxPoint x="360" y="760" as="targetPoint" />
            <Array as="points">
              <mxPoint x="330" y="885" />
              <mxPoint x="330" y="885" />
            </Array>
          </mxGeometry>
        </mxCell>
        <mxCell id="bSXzpv6cc1hzMu8H0dgz-244" value="&lt;b&gt;&lt;font style=&quot;font-size: 16px;&quot;&gt;n&lt;/font&gt;&lt;/b&gt;" style="resizable=0;html=1;whiteSpace=wrap;align=left;verticalAlign=bottom;rounded=1;labelBackgroundColor=none;fillColor=#21C0A5;strokeColor=#006658;fontColor=#5C5C5C;" connectable="0" vertex="1" parent="bSXzpv6cc1hzMu8H0dgz-243">
          <mxGeometry x="-1" relative="1" as="geometry">
            <mxPoint x="10" as="offset" />
          </mxGeometry>
        </mxCell>
        <mxCell id="bSXzpv6cc1hzMu8H0dgz-245" value="&lt;font style=&quot;font-size: 16px;&quot;&gt;&lt;b&gt;1&lt;/b&gt;&lt;/font&gt;" style="resizable=0;html=1;whiteSpace=wrap;align=right;verticalAlign=bottom;rounded=1;labelBackgroundColor=none;fillColor=#21C0A5;strokeColor=#006658;fontColor=#5C5C5C;" connectable="0" vertex="1" parent="bSXzpv6cc1hzMu8H0dgz-243">
          <mxGeometry x="1" relative="1" as="geometry">
            <mxPoint x="-10" as="offset" />
          </mxGeometry>
        </mxCell>
        <mxCell id="bSXzpv6cc1hzMu8H0dgz-246" value="" style="endArrow=none;html=1;rounded=1;edgeStyle=orthogonalEdgeStyle;elbow=vertical;labelBackgroundColor=none;strokeColor=#006658;fontColor=default;entryX=1;entryY=0.5;entryDx=0;entryDy=0;exitX=1;exitY=0.5;exitDx=0;exitDy=0;" edge="1" parent="1" source="bSXzpv6cc1hzMu8H0dgz-256" target="C-vyLk0tnHw3VtMMgP7b-24">
          <mxGeometry relative="1" as="geometry">
            <mxPoint x="260" y="380" as="sourcePoint" />
            <mxPoint x="280" y="370.06" as="targetPoint" />
            <Array as="points">
              <mxPoint x="270" y="555" />
              <mxPoint x="270" y="165" />
            </Array>
          </mxGeometry>
        </mxCell>
        <mxCell id="bSXzpv6cc1hzMu8H0dgz-247" value="&lt;b&gt;&lt;font style=&quot;font-size: 16px;&quot;&gt;n&lt;/font&gt;&lt;/b&gt;" style="resizable=0;html=1;whiteSpace=wrap;align=left;verticalAlign=bottom;rounded=1;labelBackgroundColor=none;fillColor=#21C0A5;strokeColor=#006658;fontColor=#5C5C5C;" connectable="0" vertex="1" parent="bSXzpv6cc1hzMu8H0dgz-246">
          <mxGeometry x="-1" relative="1" as="geometry">
            <mxPoint x="-20" as="offset" />
          </mxGeometry>
        </mxCell>
        <mxCell id="bSXzpv6cc1hzMu8H0dgz-248" value="&lt;font style=&quot;font-size: 16px;&quot;&gt;&lt;b&gt;n&lt;/b&gt;&lt;/font&gt;" style="resizable=0;html=1;whiteSpace=wrap;align=right;verticalAlign=bottom;rounded=1;labelBackgroundColor=none;fillColor=#21C0A5;strokeColor=#006658;fontColor=#5C5C5C;" connectable="0" vertex="1" parent="bSXzpv6cc1hzMu8H0dgz-246">
          <mxGeometry x="1" relative="1" as="geometry">
            <mxPoint x="20" as="offset" />
          </mxGeometry>
        </mxCell>
        <mxCell id="bSXzpv6cc1hzMu8H0dgz-249" value="Giocatore Video Gioco" style="shape=table;startSize=30;container=1;collapsible=1;childLayout=tableLayout;fixedRows=1;rowLines=0;fontStyle=1;align=center;resizeLast=1;labelBackgroundColor=none;fillColor=#21C0A5;strokeColor=#006658;fontColor=#5C5C5C;rounded=1;" vertex="1" parent="1">
          <mxGeometry x="-20" y="450" width="250" height="120" as="geometry" />
        </mxCell>
        <mxCell id="bSXzpv6cc1hzMu8H0dgz-250" value="" style="shape=partialRectangle;collapsible=0;dropTarget=0;pointerEvents=0;fillColor=none;points=[[0,0.5],[1,0.5]];portConstraint=eastwest;top=0;left=0;right=0;bottom=1;labelBackgroundColor=none;strokeColor=#006658;fontColor=#5C5C5C;rounded=1;" vertex="1" parent="bSXzpv6cc1hzMu8H0dgz-249">
          <mxGeometry y="30" width="250" height="30" as="geometry" />
        </mxCell>
        <mxCell id="bSXzpv6cc1hzMu8H0dgz-251" value="PK" style="shape=partialRectangle;overflow=hidden;connectable=0;fillColor=none;top=0;left=0;bottom=0;right=0;fontStyle=1;labelBackgroundColor=none;strokeColor=#006658;fontColor=#5C5C5C;rounded=1;" vertex="1" parent="bSXzpv6cc1hzMu8H0dgz-250">
          <mxGeometry width="30" height="30" as="geometry">
            <mxRectangle width="30" height="30" as="alternateBounds" />
          </mxGeometry>
        </mxCell>
        <mxCell id="bSXzpv6cc1hzMu8H0dgz-252" value="UniqueID" style="shape=partialRectangle;overflow=hidden;connectable=0;fillColor=none;top=0;left=0;bottom=0;right=0;align=left;spacingLeft=6;fontStyle=5;labelBackgroundColor=none;strokeColor=#006658;fontColor=#5C5C5C;rounded=1;" vertex="1" parent="bSXzpv6cc1hzMu8H0dgz-250">
          <mxGeometry x="30" width="220" height="30" as="geometry">
            <mxRectangle width="220" height="30" as="alternateBounds" />
          </mxGeometry>
        </mxCell>
        <mxCell id="bSXzpv6cc1hzMu8H0dgz-253" value="" style="shape=partialRectangle;collapsible=0;dropTarget=0;pointerEvents=0;fillColor=none;points=[[0,0.5],[1,0.5]];portConstraint=eastwest;top=0;left=0;right=0;bottom=0;labelBackgroundColor=none;strokeColor=#006658;fontColor=#5C5C5C;rounded=1;" vertex="1" parent="bSXzpv6cc1hzMu8H0dgz-249">
          <mxGeometry y="60" width="250" height="30" as="geometry" />
        </mxCell>
        <mxCell id="bSXzpv6cc1hzMu8H0dgz-254" value="FK" style="shape=partialRectangle;overflow=hidden;connectable=0;fillColor=none;top=0;left=0;bottom=0;right=0;labelBackgroundColor=none;strokeColor=#006658;fontColor=#5C5C5C;rounded=1;fontStyle=1" vertex="1" parent="bSXzpv6cc1hzMu8H0dgz-253">
          <mxGeometry width="30" height="30" as="geometry">
            <mxRectangle width="30" height="30" as="alternateBounds" />
          </mxGeometry>
        </mxCell>
        <mxCell id="bSXzpv6cc1hzMu8H0dgz-255" value="Giocatore id" style="shape=partialRectangle;overflow=hidden;connectable=0;fillColor=none;top=0;left=0;bottom=0;right=0;align=left;spacingLeft=6;labelBackgroundColor=none;strokeColor=#006658;fontColor=#5C5C5C;rounded=1;fontStyle=5" vertex="1" parent="bSXzpv6cc1hzMu8H0dgz-253">
          <mxGeometry x="30" width="220" height="30" as="geometry">
            <mxRectangle width="220" height="30" as="alternateBounds" />
          </mxGeometry>
        </mxCell>
        <mxCell id="bSXzpv6cc1hzMu8H0dgz-256" style="shape=partialRectangle;collapsible=0;dropTarget=0;pointerEvents=0;fillColor=none;points=[[0,0.5],[1,0.5]];portConstraint=eastwest;top=0;left=0;right=0;bottom=0;labelBackgroundColor=none;strokeColor=#006658;fontColor=#5C5C5C;rounded=1;" vertex="1" parent="bSXzpv6cc1hzMu8H0dgz-249">
          <mxGeometry y="90" width="250" height="30" as="geometry" />
        </mxCell>
        <mxCell id="bSXzpv6cc1hzMu8H0dgz-257" value="FK" style="shape=partialRectangle;overflow=hidden;connectable=0;fillColor=none;top=0;left=0;bottom=0;right=0;labelBackgroundColor=none;strokeColor=#006658;fontColor=#5C5C5C;rounded=1;fontStyle=1" vertex="1" parent="bSXzpv6cc1hzMu8H0dgz-256">
          <mxGeometry width="30" height="30" as="geometry">
            <mxRectangle width="30" height="30" as="alternateBounds" />
          </mxGeometry>
        </mxCell>
        <mxCell id="bSXzpv6cc1hzMu8H0dgz-258" value="Video Gioco id" style="shape=partialRectangle;overflow=hidden;connectable=0;fillColor=none;top=0;left=0;bottom=0;right=0;align=left;spacingLeft=6;labelBackgroundColor=none;strokeColor=#006658;fontColor=#5C5C5C;rounded=1;fontStyle=5" vertex="1" parent="bSXzpv6cc1hzMu8H0dgz-256">
          <mxGeometry x="30" width="220" height="30" as="geometry">
            <mxRectangle width="220" height="30" as="alternateBounds" />
          </mxGeometry>
        </mxCell>
        <mxCell id="bSXzpv6cc1hzMu8H0dgz-269" value="" style="endArrow=none;html=1;rounded=1;edgeStyle=orthogonalEdgeStyle;elbow=vertical;labelBackgroundColor=none;strokeColor=#006658;fontColor=default;exitX=0;exitY=0.5;exitDx=0;exitDy=0;entryX=1;entryY=0.5;entryDx=0;entryDy=0;" edge="1" parent="1" source="bSXzpv6cc1hzMu8H0dgz-253" target="bSXzpv6cc1hzMu8H0dgz-173">
          <mxGeometry relative="1" as="geometry">
            <mxPoint x="-140" y="549.9699999999999" as="sourcePoint" />
            <mxPoint x="-230" y="469.9699999999999" as="targetPoint" />
            <Array as="points">
              <mxPoint x="-100" y="525" />
              <mxPoint x="-100" y="645" />
            </Array>
          </mxGeometry>
        </mxCell>
        <mxCell id="bSXzpv6cc1hzMu8H0dgz-270" value="&lt;b&gt;&lt;font style=&quot;font-size: 16px;&quot;&gt;n&lt;/font&gt;&lt;/b&gt;" style="resizable=0;html=1;whiteSpace=wrap;align=left;verticalAlign=bottom;rounded=1;labelBackgroundColor=none;fillColor=#21C0A5;strokeColor=#006658;fontColor=#5C5C5C;" connectable="0" vertex="1" parent="bSXzpv6cc1hzMu8H0dgz-269">
          <mxGeometry x="-1" relative="1" as="geometry">
            <mxPoint x="-20" as="offset" />
          </mxGeometry>
        </mxCell>
        <mxCell id="bSXzpv6cc1hzMu8H0dgz-271" value="&lt;font style=&quot;font-size: 16px;&quot;&gt;&lt;b&gt;n&lt;/b&gt;&lt;/font&gt;" style="resizable=0;html=1;whiteSpace=wrap;align=right;verticalAlign=bottom;rounded=1;labelBackgroundColor=none;fillColor=#21C0A5;strokeColor=#006658;fontColor=#5C5C5C;" connectable="0" vertex="1" parent="bSXzpv6cc1hzMu8H0dgz-269">
          <mxGeometry x="1" relative="1" as="geometry">
            <mxPoint x="20" as="offset" />
          </mxGeometry>
        </mxCell>
        <mxCell id="bSXzpv6cc1hzMu8H0dgz-301" value="" style="endArrow=none;html=1;rounded=1;edgeStyle=orthogonalEdgeStyle;elbow=vertical;labelBackgroundColor=none;strokeColor=#6F0000;fontColor=default;exitX=1;exitY=0.5;exitDx=0;exitDy=0;entryX=0;entryY=0.5;entryDx=0;entryDy=0;fillColor=#a20025;" edge="1" parent="1" source="bSXzpv6cc1hzMu8H0dgz-304" target="C-vyLk0tnHw3VtMMgP7b-24">
          <mxGeometry relative="1" as="geometry">
            <mxPoint x="-410" y="230" as="sourcePoint" />
            <mxPoint x="-90" y="210" as="targetPoint" />
            <Array as="points">
              <mxPoint x="-350" y="315" />
              <mxPoint x="-350" y="230" />
              <mxPoint x="-70" y="230" />
              <mxPoint x="-70" y="165" />
            </Array>
          </mxGeometry>
        </mxCell>
        <mxCell id="bSXzpv6cc1hzMu8H0dgz-302" value="&lt;b&gt;&lt;font style=&quot;font-size: 16px;&quot;&gt;n&lt;/font&gt;&lt;/b&gt;" style="resizable=0;html=1;whiteSpace=wrap;align=left;verticalAlign=bottom;rounded=1;labelBackgroundColor=none;fillColor=#21C0A5;strokeColor=#006658;fontColor=#FF3333;" connectable="0" vertex="1" parent="bSXzpv6cc1hzMu8H0dgz-301">
          <mxGeometry x="-1" relative="1" as="geometry">
            <mxPoint x="10" y="-5" as="offset" />
          </mxGeometry>
        </mxCell>
        <mxCell id="bSXzpv6cc1hzMu8H0dgz-303" value="&lt;font style=&quot;font-size: 16px;&quot;&gt;&lt;b&gt;1&lt;/b&gt;&lt;/font&gt;" style="resizable=0;html=1;whiteSpace=wrap;align=right;verticalAlign=bottom;rounded=1;labelBackgroundColor=none;fillColor=#21C0A5;strokeColor=#006658;fontColor=#FF3333;" connectable="0" vertex="1" parent="bSXzpv6cc1hzMu8H0dgz-301">
          <mxGeometry x="1" relative="1" as="geometry">
            <mxPoint x="-11" y="25" as="offset" />
          </mxGeometry>
        </mxCell>
        <mxCell id="bSXzpv6cc1hzMu8H0dgz-307" value="" style="endArrow=none;html=1;rounded=1;edgeStyle=orthogonalEdgeStyle;elbow=vertical;labelBackgroundColor=none;strokeColor=#d6b656;fontColor=default;exitX=1;exitY=0.5;exitDx=0;exitDy=0;entryX=1;entryY=0.5;entryDx=0;entryDy=0;fillColor=#fff2cc;" edge="1" parent="1" source="bSXzpv6cc1hzMu8H0dgz-310" target="C-vyLk0tnHw3VtMMgP7b-24">
          <mxGeometry relative="1" as="geometry">
            <mxPoint x="460" y="450.06" as="sourcePoint" />
            <mxPoint x="370" y="540.06" as="targetPoint" />
            <Array as="points">
              <mxPoint x="320" y="855" />
              <mxPoint x="320" y="230" />
              <mxPoint x="251" y="230" />
              <mxPoint x="251" y="165" />
            </Array>
          </mxGeometry>
        </mxCell>
        <mxCell id="bSXzpv6cc1hzMu8H0dgz-308" value="&lt;b&gt;&lt;font style=&quot;font-size: 16px;&quot;&gt;n&lt;/font&gt;&lt;/b&gt;" style="resizable=0;html=1;whiteSpace=wrap;align=left;verticalAlign=bottom;rounded=1;labelBackgroundColor=none;fillColor=#21C0A5;strokeColor=#006658;fontColor=#FCA000;" connectable="0" vertex="1" parent="bSXzpv6cc1hzMu8H0dgz-307">
          <mxGeometry x="-1" relative="1" as="geometry">
            <mxPoint x="9" y="-5" as="offset" />
          </mxGeometry>
        </mxCell>
        <mxCell id="bSXzpv6cc1hzMu8H0dgz-309" value="&lt;font style=&quot;font-size: 16px;&quot;&gt;&lt;b&gt;1&lt;/b&gt;&lt;/font&gt;" style="resizable=0;html=1;whiteSpace=wrap;align=right;verticalAlign=bottom;rounded=1;labelBackgroundColor=none;fillColor=#21C0A5;strokeColor=#006658;fontColor=#FCA000;" connectable="0" vertex="1" parent="bSXzpv6cc1hzMu8H0dgz-307">
          <mxGeometry x="1" relative="1" as="geometry">
            <mxPoint x="20" y="35" as="offset" />
          </mxGeometry>
        </mxCell>
        <mxCell id="bSXzpv6cc1hzMu8H0dgz-313" value="" style="endArrow=none;html=1;rounded=1;edgeStyle=orthogonalEdgeStyle;elbow=vertical;labelBackgroundColor=none;strokeColor=#d6b656;fontColor=default;entryX=1;entryY=0.5;entryDx=0;entryDy=0;exitX=0;exitY=0.5;exitDx=0;exitDy=0;fillColor=#fff2cc;" edge="1" parent="1" source="bSXzpv6cc1hzMu8H0dgz-316" target="bSXzpv6cc1hzMu8H0dgz-173">
          <mxGeometry relative="1" as="geometry">
            <mxPoint x="-70" y="870" as="sourcePoint" />
            <mxPoint x="-30" y="760" as="targetPoint" />
            <Array as="points">
              <mxPoint x="-100" y="915" />
              <mxPoint x="-100" y="645" />
            </Array>
          </mxGeometry>
        </mxCell>
        <mxCell id="bSXzpv6cc1hzMu8H0dgz-314" value="&lt;b&gt;&lt;font style=&quot;font-size: 16px;&quot;&gt;n&lt;/font&gt;&lt;/b&gt;" style="resizable=0;html=1;whiteSpace=wrap;align=left;verticalAlign=bottom;rounded=1;labelBackgroundColor=none;fillColor=#21C0A5;strokeColor=#006658;fontColor=#FF8800;" connectable="0" vertex="1" parent="bSXzpv6cc1hzMu8H0dgz-313">
          <mxGeometry x="-1" relative="1" as="geometry">
            <mxPoint x="-21" as="offset" />
          </mxGeometry>
        </mxCell>
        <mxCell id="bSXzpv6cc1hzMu8H0dgz-315" value="&lt;font style=&quot;font-size: 16px;&quot;&gt;&lt;b&gt;1&lt;/b&gt;&lt;/font&gt;" style="resizable=0;html=1;whiteSpace=wrap;align=right;verticalAlign=bottom;rounded=1;labelBackgroundColor=none;fillColor=#21C0A5;strokeColor=#006658;fontColor=#FF8800;" connectable="0" vertex="1" parent="bSXzpv6cc1hzMu8H0dgz-313">
          <mxGeometry x="1" relative="1" as="geometry">
            <mxPoint x="20" y="25" as="offset" />
          </mxGeometry>
        </mxCell>
      </root>
    </mxGraphModel>
  </diagram>
</mxfile>
